<mxfile host="app.diagrams.net" agent="Mozilla/5.0 (Macintosh; Intel Mac OS X 10_15_7) AppleWebKit/537.36 (KHTML, like Gecko) Chrome/131.0.0.0 Safari/537.36" version="26.0.2">
  <diagram name="Page-1" id="Q-TzMP57dKPgxBlJDPfX">
    <mxGraphModel dx="2762" dy="1100" grid="1" gridSize="10" guides="1" tooltips="1" connect="1" arrows="1" fold="1" page="1" pageScale="1" pageWidth="850" pageHeight="1100" math="0" shadow="0">
      <root>
        <mxCell id="0" />
        <mxCell id="1" parent="0" />
        <mxCell id="XpQHc-YMDH5aCk1nWTeP-1" value="" style="rounded=0;whiteSpace=wrap;html=1;strokeColor=none;fillColor=light-dark(#000024,#DEDEFF);fillStyle=auto;gradientColor=#1C1C1C;gradientDirection=south;opacity=90;" vertex="1" parent="1">
          <mxGeometry x="-80" y="170" width="1560" height="1000" as="geometry" />
        </mxCell>
        <mxCell id="XpQHc-YMDH5aCk1nWTeP-3" value="" style="ellipse;whiteSpace=wrap;html=1;aspect=fixed;strokeColor=#FFFFFF;fillColor=none;strokeWidth=3;opacity=30;" vertex="1" parent="1">
          <mxGeometry x="208" y="367" width="80" height="80" as="geometry" />
        </mxCell>
        <mxCell id="XpQHc-YMDH5aCk1nWTeP-30" value="" style="group;opacity=30;" vertex="1" connectable="0" parent="1">
          <mxGeometry x="121" y="265" width="1319" height="846.2" as="geometry" />
        </mxCell>
        <mxCell id="XpQHc-YMDH5aCk1nWTeP-26" value="" style="endArrow=classic;html=1;rounded=0;strokeWidth=2;strokeColor=#FFFFFF;curved=1;elbow=horizontal;endSize=12;flowAnimation=1;shadow=0;opacity=30;" edge="1" parent="XpQHc-YMDH5aCk1nWTeP-30">
          <mxGeometry width="50" height="50" relative="1" as="geometry">
            <mxPoint x="1149" y="325" as="sourcePoint" />
            <mxPoint x="499.0000000000005" y="761.4759036144578" as="targetPoint" />
            <Array as="points">
              <mxPoint x="1249" y="725" />
            </Array>
          </mxGeometry>
        </mxCell>
        <mxCell id="XpQHc-YMDH5aCk1nWTeP-27" value="" style="endArrow=classic;html=1;rounded=0;strokeWidth=2;strokeColor=#FFFFFF;curved=1;elbow=horizontal;endSize=6;flowAnimation=1;shadow=0;opacity=30;exitX=-0.007;exitY=0.629;exitDx=0;exitDy=0;exitPerimeter=0;" edge="1" parent="XpQHc-YMDH5aCk1nWTeP-30" source="XpQHc-YMDH5aCk1nWTeP-68">
          <mxGeometry width="50" height="50" relative="1" as="geometry">
            <mxPoint x="599.0000000000005" y="761.4759036144578" as="sourcePoint" />
            <mxPoint x="9" y="385" as="targetPoint" />
            <Array as="points">
              <mxPoint x="80.00000000000085" y="785.421686746988" />
            </Array>
          </mxGeometry>
        </mxCell>
        <mxCell id="XpQHc-YMDH5aCk1nWTeP-28" value="" style="endArrow=classic;html=1;rounded=0;strokeWidth=1;strokeColor=#FFFFFF;curved=1;elbow=horizontal;endSize=6;flowAnimation=1;shadow=0;opacity=30;" edge="1" parent="XpQHc-YMDH5aCk1nWTeP-30">
          <mxGeometry width="50" height="50" relative="1" as="geometry">
            <mxPoint x="319.0000000000007" y="52.68072289156627" as="sourcePoint" />
            <mxPoint x="1149" y="325" as="targetPoint" />
            <Array as="points">
              <mxPoint x="1089" y="-23.94578313253012" />
            </Array>
          </mxGeometry>
        </mxCell>
        <mxCell id="XpQHc-YMDH5aCk1nWTeP-83" value="" style="shape=image;imageAspect=0;aspect=fixed;verticalLabelPosition=bottom;verticalAlign=top;image=data:image/png,iVBORw0KGgoAAAANSUhEUgAAASwAAABpCAYAAACAnx4eAAAKQWlDQ1BJQ0MgUHJvZmlsZQAASA2dlndUU9kWh8+9N73QEiIgJfQaegkg0jtIFQRRiUmAUAKGhCZ2RAVGFBEpVmRUwAFHhyJjRRQLg4Ji1wnyEFDGwVFEReXdjGsJ7601896a/cdZ39nnt9fZZ+9917oAUPyCBMJ0WAGANKFYFO7rwVwSE8vE9wIYEAEOWAHA4WZmBEf4RALU/L09mZmoSMaz9u4ugGS72yy/UCZz1v9/kSI3QyQGAApF1TY8fiYX5QKUU7PFGTL/BMr0lSkyhjEyFqEJoqwi48SvbPan5iu7yZiXJuShGlnOGbw0noy7UN6aJeGjjAShXJgl4GejfAdlvVRJmgDl9yjT0/icTAAwFJlfzOcmoWyJMkUUGe6J8gIACJTEObxyDov5OWieAHimZ+SKBIlJYqYR15hp5ejIZvrxs1P5YjErlMNN4Yh4TM/0tAyOMBeAr2+WRQElWW2ZaJHtrRzt7VnW5mj5v9nfHn5T/T3IevtV8Sbsz55BjJ5Z32zsrC+9FgD2JFqbHbO+lVUAtG0GQOXhrE/vIADyBQC03pzzHoZsXpLE4gwnC4vs7GxzAZ9rLivoN/ufgm/Kv4Y595nL7vtWO6YXP4EjSRUzZUXlpqemS0TMzAwOl89k/fcQ/+PAOWnNycMsnJ/AF/GF6FVR6JQJhIlou4U8gViQLmQKhH/V4X8YNicHGX6daxRodV8AfYU5ULhJB8hvPQBDIwMkbj96An3rWxAxCsi+vGitka9zjzJ6/uf6Hwtcim7hTEEiU+b2DI9kciWiLBmj34RswQISkAd0oAo0gS4wAixgDRyAM3AD3iAAhIBIEAOWAy5IAmlABLJBPtgACkEx2AF2g2pwANSBetAEToI2cAZcBFfADXALDIBHQAqGwUswAd6BaQiC8BAVokGqkBakD5lC1hAbWgh5Q0FQOBQDxUOJkBCSQPnQJqgYKoOqoUNQPfQjdBq6CF2D+qAH0CA0Bv0BfYQRmALTYQ3YALaA2bA7HAhHwsvgRHgVnAcXwNvhSrgWPg63whfhG/AALIVfwpMIQMgIA9FGWAgb8URCkFgkAREha5EipAKpRZqQDqQbuY1IkXHkAwaHoWGYGBbGGeOHWYzhYlZh1mJKMNWYY5hWTBfmNmYQM4H5gqVi1bGmWCesP3YJNhGbjS3EVmCPYFuwl7ED2GHsOxwOx8AZ4hxwfrgYXDJuNa4Etw/XjLuA68MN4SbxeLwq3hTvgg/Bc/BifCG+Cn8cfx7fjx/GvyeQCVoEa4IPIZYgJGwkVBAaCOcI/YQRwjRRgahPdCKGEHnEXGIpsY7YQbxJHCZOkxRJhiQXUiQpmbSBVElqIl0mPSa9IZPJOmRHchhZQF5PriSfIF8lD5I/UJQoJhRPShxFQtlOOUq5QHlAeUOlUg2obtRYqpi6nVpPvUR9Sn0vR5Mzl/OX48mtk6uRa5Xrl3slT5TXl3eXXy6fJ18hf0r+pvy4AlHBQMFTgaOwVqFG4bTCPYVJRZqilWKIYppiiWKD4jXFUSW8koGStxJPqUDpsNIlpSEaQtOledK4tE20Otpl2jAdRzek+9OT6cX0H+i99AllJWVb5SjlHOUa5bPKUgbCMGD4M1IZpYyTjLuMj/M05rnP48/bNq9pXv+8KZX5Km4qfJUilWaVAZWPqkxVb9UU1Z2qbapP1DBqJmphatlq+9Uuq43Pp893ns+dXzT/5PyH6rC6iXq4+mr1w+o96pMamhq+GhkaVRqXNMY1GZpumsma5ZrnNMe0aFoLtQRa5VrntV4wlZnuzFRmJbOLOaGtru2nLdE+pN2rPa1jqLNYZ6NOs84TXZIuWzdBt1y3U3dCT0svWC9fr1HvoT5Rn62fpL9Hv1t/ysDQINpgi0GbwaihiqG/YZ5ho+FjI6qRq9Eqo1qjO8Y4Y7ZxivE+41smsImdSZJJjclNU9jU3lRgus+0zwxr5mgmNKs1u8eisNxZWaxG1qA5wzzIfKN5m/krCz2LWIudFt0WXyztLFMt6ywfWSlZBVhttOqw+sPaxJprXWN9x4Zq42Ozzqbd5rWtqS3fdr/tfTuaXbDdFrtOu8/2DvYi+yb7MQc9h3iHvQ732HR2KLuEfdUR6+jhuM7xjOMHJ3snsdNJp9+dWc4pzg3OowsMF/AX1C0YctFx4bgccpEuZC6MX3hwodRV25XjWuv6zE3Xjed2xG3E3dg92f24+ysPSw+RR4vHlKeT5xrPC16Il69XkVevt5L3Yu9q76c+Oj6JPo0+E752vqt9L/hh/QL9dvrd89fw5/rX+08EOASsCegKpARGBFYHPgsyCRIFdQTDwQHBu4IfL9JfJFzUFgJC/EN2hTwJNQxdFfpzGC4sNKwm7Hm4VXh+eHcELWJFREPEu0iPyNLIR4uNFksWd0bJR8VF1UdNRXtFl0VLl1gsWbPkRoxajCCmPRYfGxV7JHZyqffS3UuH4+ziCuPuLjNclrPs2nK15anLz66QX8FZcSoeGx8d3xD/iRPCqeVMrvRfuXflBNeTu4f7kufGK+eN8V34ZfyRBJeEsoTRRJfEXYljSa5JFUnjAk9BteB1sl/ygeSplJCUoykzqdGpzWmEtPi000IlYYqwK10zPSe9L8M0ozBDuspp1e5VE6JA0ZFMKHNZZruYjv5M9UiMJJslg1kLs2qy3mdHZZ/KUcwR5vTkmuRuyx3J88n7fjVmNXd1Z752/ob8wTXuaw6thdauXNu5Tnddwbrh9b7rj20gbUjZ8MtGy41lG99uit7UUaBRsL5gaLPv5sZCuUJR4b0tzlsObMVsFWzt3WazrWrblyJe0fViy+KK4k8l3JLr31l9V/ndzPaE7b2l9qX7d+B2CHfc3em681iZYlle2dCu4F2t5czyovK3u1fsvlZhW3FgD2mPZI+0MqiyvUqvakfVp+qk6oEaj5rmvep7t+2d2sfb17/fbX/TAY0DxQc+HhQcvH/I91BrrUFtxWHc4azDz+ui6rq/Z39ff0TtSPGRz0eFR6XHwo911TvU1zeoN5Q2wo2SxrHjccdv/eD1Q3sTq+lQM6O5+AQ4ITnx4sf4H++eDDzZeYp9qukn/Z/2ttBailqh1tzWibakNml7THvf6YDTnR3OHS0/m/989Iz2mZqzymdLz5HOFZybOZ93fvJCxoXxi4kXhzpXdD66tOTSna6wrt7LgZevXvG5cqnbvfv8VZerZ645XTt9nX297Yb9jdYeu56WX+x+aem172296XCz/ZbjrY6+BX3n+l37L972un3ljv+dGwOLBvruLr57/17cPel93v3RB6kPXj/Mejj9aP1j7OOiJwpPKp6qP6391fjXZqm99Oyg12DPs4hnj4a4Qy//lfmvT8MFz6nPK0a0RupHrUfPjPmM3Xqx9MXwy4yX0+OFvyn+tveV0auffnf7vWdiycTwa9HrmT9K3qi+OfrW9m3nZOjk03dp76anit6rvj/2gf2h+2P0x5Hp7E/4T5WfjT93fAn88ngmbWbm3/eE8/syOll+AAAACXBIWXMAAAsTAAALEwEAmpwYAAACO2lUWHRYTUw6Y29tLmFkb2JlLnhtcAAAAAAAPHg6eG1wbWV0YSB4bWxuczp4PSJhZG9iZTpuczptZXRhLyIgeDp4bXB0az0iWE1QIENvcmUgNS40LjAiPgogICA8cmRmOlJERiB4bWxuczpyZGY9Imh0dHA6Ly93d3cudzMub3JnLzE5OTkvMDIvMjItcmRmLXN5bnRheC1ucyMiPgogICAgICA8cmRmOkRlc2NyaXB0aW9uIHJkZjphYm91dD0iIgogICAgICAgICAgICB4bWxuczp4bXA9Imh0dHA6Ly9ucy5hZG9iZS5jb20veGFwLzEuMC8iCiAgICAgICAgICAgIHhtbG5zOnRpZmY9Imh0dHA6Ly9ucy5hZG9iZS5jb20vdGlmZi8xLjAvIj4KICAgICAgICAgPHhtcDpDcmVhdG9yVG9vbD5BZG9iZSBQaG90b3Nob3AgQ0MgKE1hY2ludG9zaCk8L3htcDpDcmVhdG9yVG9vbD4KICAgICAgICAgPHRpZmY6WVJlc29sdXRpb24+NzI8L3RpZmY6WVJlc29sdXRpb24+CiAgICAgICAgIDx0aWZmOk9yaWVudGF0aW9uPjE8L3RpZmY6T3JpZW50YXRpb24+CiAgICAgICAgIDx0aWZmOlhSZXNvbHV0aW9uPjcyPC90aWZmOlhSZXNvbHV0aW9uPgogICAgICA8L3JkZjpEZXNjcmlwdGlvbj4KICAgPC9yZGY6UkRGPgo8L3g6eG1wbWV0YT4KWpLlrAAAQABJREFUeAHsnQecH1d178/86/a+q1313iUXyUhustwwGHdcgiumOYQQSF4eIQSeRRISQjGPmmBCwN1YNHcbN9kyrnJXsXpZrXa1Xdv++6/zvr+7/1mvmgsYsHm6+zk7M7fNvXfm/v7nnHvuGc/eJcH3/ZDneTk1d+XKlZO5TixZsqSZI9Gef6BuKO3LX/6yt2zZshxlKhP9/d/0wuFvnXrqqa+MrC8ou29d+14H+f5sjxfcFrY5tZ4tOzGzbx+PfmhgTG8uOS3k+bND4fC0bM4fu6l1a0OmcVNFpKSyPlxVWxYuLMxFIhEvEg6nouFor29eR5lZV3Uk3JI1b3sondy07Rc/2NTUsmWD3X5r4773sEceiVhbm28XXqjnfMBnul+ZQxH/X41A5N3SW4HVY4891kB7L8pls0t4m5dzfsvy5ctDHLP79mME2PgP3n//qYm+vs9TZkY4FPqe8lLOG1kmyP+rX/2qgjl3Sjgce5R7tgXxyqtzDkQPAefI8u/ec/q0bEXYrl4KpnhZN6p0Jv7TV6bEw96xoUh0iRUVL2jNDEwpLy4u9WIFjIBZmMEcHZ1mW/v7LbrmGUtGeAzVdRYqKDIrKIpFS8pLYtV1DQVl1RaKxi1MmdqwWc+4qdaUy/UXL/vh5pTZM+Fc9nE/nXsy+e9/vcFOHAZKbyngtWKpa9Mh4Hr3vlxve8v/1IDlAQJCgDd8KVeuWHEmmRb62WwxoxAKWTh9sNEIQEYAl04m/y6by02BD1O5nlwuecB7iRMj3Q+FvK+FQ5GPZ7PZw7luCwAxqFN5brvttvAFF1yQezPtJv87MyxbFrIVBnkZW2Yii331vjm5WPhM88Jn5Pq635Mqr47GIjGLRKLWLaweGPBDAwOO+4mEPCsOh7368dOtlWGLvvKEl974suUKS82LF/rJSNhPxgr9wYnTrXD8dH9SLGKF8ZhXVD0qZDs2FnvlFfOtqmZ+Jhr7GGObjdy08tlcOHx7pKjoztRZh69ZkQevBT9cFX2ueUHWlv05/Ui8M1+Jd0Or/pSA5QCCSf+G47Rq1apoqr9/2zFLlty5YsWK40G5f8ruz1TtV0+2ry+cCYd/ftpppz19/733/jcs0vvCFnJi5cjMAqALL7wwe/fddy/MZjIfT6XSvz7n3HNfIr93IVxHAFbkq4/FYlXnnHPOWpUP4kfW9c4/B6gW7ArbsmUC/NzY2xoL2ze8eB4vwpXpkHeSX1btiWX1MmkLpVOZMECT7e7wLOSF2krKQTY/nO7tsFAyYQXxuHmFJRaun2CRolKLrH/eUi3bzE8nEQsjnhfut+zLXbaaH6WyybOslJ+KkrJKs2Qil9uywffaWnyrq/eselTYiksXe5Ho4lxi4N/CP3/miZlFJdde8P5Zty3zvEGN6SHg0igcCn8qwHJgJaAYO3Zs/dFHH938emLWwoULNble0eMK+34cBPHCrwN04nzyYLKTIiIJctGcvx9WuaTgXzadvqigsNASg4MrFPfIihXhE80yAfcVjUaLBwcTK2+55ZYHqqqqPsp9+t9FoOXZ0mVhW7EsY88BVH97TVXnjp2fbF7+3Y96JeWTrAhtU2GRhQZ7014sFvKKSkN+JhlJ9LRZDnVSKF5gRXBa8eJSG0gNWnbTizYwmDDKIgGWWg9in8VLEAdLfNvT7lnvHlg2uLPiMotufdU2Ii42FI6xssoaC0ViXqZvT8jr6zavdZf5FTUCrpxfUpqzWDyaKS49tj0xcOzyX65atuDuV340vaj6R7ecOLpdz8QB1ycWZHieB+SUledQ+PMdgT86YAUT/JFHHimIhcPnc602XPdGQ/zDH/4wetVVV6WdNhjAyg3pkw5aTKCFsj00e/ZsT9yTnzswWOXbkxUX17Rz53GJRMLCEXtVFT/66KOufupxkwPOasvPbrmlqaq66qKurq4bSbwLjg/NDIzHOznww4AiOyuwmvjZb1XseuGpv9358D1/ZdF4TVFdvYVq6rMZy/jWuSsc2r0lav3d5heUWK680jzpoACddGmFReG6phUVWnvtaHt121orbN5uoY4W69nTZVOnzbJxhy02b/pMLxoOWbKj2Zo3r7OdbS3W37jZ2urGWEdlrVVFYwBW1PMBvRDPJJfoMb+vx/M6W8NWWR220jI/VlyabS0qtt0FRZMqKqv/rTW18+/n3v3Sd98zZfQ3/2dmba9dZXaB74eXS+d2KPx/NQJ/dMAKRpfVpELO6yybbQ3iXu9YWVk5jDgeGiw7CACNrCMPNK6c76GEQZHFz/7ILDonzvy2xsYxvvkTkF76Qn60RQmAXfAr7sBPXCDc1fZMOjMvl8vNJctdGzZsUPm9goBSERyH27xXhj/WhUD9qmsjgJXT91Wf9Zd/vW3FPVdbZW3N5BPeb6PmLc6kC0pD2zvawz1Nm1m6SJkfj5lXLkV5lKFC5AuFzQfOcumkheBQwzA2FYBJSd1YSwJY6ZaddvySU23UkUutN1poafKkGdLiunE2b8bhNm+w3zp27bCXd26z1e0tdsyo0TYGwNu+fb1xB8vmwPp02nzyWX+PWVGplyuCl6us8kMlZbme/t5cd21dVVdx8dWJTU1XHfXgxn959pRpP3BghX7LDnFbf6y36R1xnz8oYAXc1IF6WsgSeDKZTDPx95vwB8ofxOXS6RAqd61JOVAI4t/oiBIGwcb3MqHMXvcLVgszkUiVn06XUk8CYOpVfSjWA8Aarp7C/SEAk76NVWRzc/NeefJ9dkAV6MaGC/8RT5YuY5XNQ6EOHEz+/jNH7Xzq3u93tDQeNf6kc23skcemc8VV4c62lkgLXNBgTztAxHBW1CJzhwGpCP3L8ptAcRDcclnHDWX4keCBWSGi4ajqetvMiuDZF33UiibPtZf6B6ytp9OiDFABIFcWjloRnFZtYZmNmXmY1Y2fYus6260jm7UiREjrbLUEXJs/OGAR4mIa074e308lvRyPIZfJeP5gwosV9YWsb08u0b47u7m6pr6/qOj7c36z7iOlkYJPPXXSpKfFbTlziNdWGP+Io3zoVn/sEfiDAFYAVBLLDtah3t5eRAeWmbCvOliekfEBeFTV1vYxiXZk07m+kelvdI5ISGO01HXg4A2tPkbJ00ezHOCguxrOLNFSF4iiLDOi0/E8FDZ7cWECMbrsaRVxXllZWdP73ve+zj8FaEnPs+Iqp/ezUdf89l/6Bge/mIKfOfH8S9Ol0w4P7+jqj764fQdrprv9mEdPKuodFxUCoFwnAakcXBVopS46BTw6I8vAdXn8sepqlWVVdu4pZ1rJqPG2urvH1vZ3WSQDJ6aykYjVAWaj0Hv1D2atNGlWz/m8+jEs0/qWwLRh/LT5frpzt5ce6EPd1WkDu7YJGFHAI6JWVFtMyvmBMvPLys0vLglFB3pD0e7OXAvA1TVu0oKqWPKpCfev/tftp839kjOHELeV77Nr9KF/f5Yj8IcALDdpNVrPPPPMuKP6+5u9g/z6MVX8cCSCOc6bDxMmTBD3sxFw6FSpAMjeVA0j4BMdVAiRza+txVCSANeUxmTCIU46nXZxB6lTOitNzEDcC6seiX/XXov4BUcD53je7t27P3PzzTcvRX/2Mmm6V5D/INW+LdEenFVYYLXkztZp1tN188am5oXNfQk7/+yzM2XjJkW3dPRaT2+vhVnhi1eP8TKpAbiZJFiB1MjKX5ijeFHHZeWIkxQN95WNF9nYcvRYcE3Ywdms8kLWaUts3Z5ee7W7zQAUCwFYYQEdSsB2AGpPabkVFRSalvlq0X9NiYStLh618ZNnWK6q2sv177EIABhN9FoROq2+5kZr3bTWWndsssSmNYY9hdmocRarH21eVQ3yYyZU1N8byu7pzrSMaojEx0364pg7Vp1eHS+64uXTZq826eowNzmkkH9b3qV3ZCVvN2Bpovv33HNPHA7jqFwqVWhLl+48UM8lElZUVOwqLi5uez1ObERZByKs1GXhgFIAllgAhdcDl6Ec/AdgWGD0WVzUDDSTAj+f6IAkFwqJY0siosZDvu8UXVdffbUBNC7b2rVr83CXK3JcRja7WwkAkgNccVfLl39L45nmvGv06IbKnTubLuX6cw0NDQK5PyxgSW929dW+EwP/9fGLmlo6rp9YXxtrfvLx9AlHHhEpHzcpsq65y3b3DFhrYsDCcEkZxDYvWuAGEAM0rKnCqN7hHlMJi0LGEPvplOXgluI1oyyCwrwrlbYZcYaQ3mxNpm0rYDWI4r0gOUgUQyQRkhBDkvN7uixRVWUxRL9W6t4xsMcqEn02r6jIKguLrRWObVNnm4XgsCYAoIVjJ9mohvE2GuBM9HZburvTerZvskYM460dVWcNIisrmV5yMBJNJv3s4ECmuW70kd0DfS8X/OqpywfPXXwjt8YQFq79kN2Wew5/bv80wd62wETlx80zFOQNGF6OyXreFoGRJrOO+RsJMPzq6upkfX19ezwel2kAa+KoUTxv4ECNyZd3K0IlJSUqj5AxBACUGbaTOkDZ4J5WVVnZ3tvX1w9nlbzmmmsKZ0yePBV0UhsajznmmATAuS2VTHZzr7G0vUp1BfotnQNcrq5czq+GA7NoKLTzl7/8ZXV/f/9Y+rCLdrSRjVnuQnRwUHxFDk2y2fTp04fb4VLf5n8XwFks1yog4Bq79KtfYdHyC32oBjs6O9Mzx42PTpg8znZ092OOgF6KZ5SAIijYpWR3AZ2VTHFFIUwNQt0tlkUJrpU8NkShhJ9uQtwXWltsNGLjvAljrDUbsY5El3XsbrQiwCWDUh7Wy3Fj4soEgHriPnqtZFW1heGQSgC8bupb2bTNamFQqzBxGAtweXBkXcStefYxM3RaYZT6dbUNVjdphk0/9lSbB0fnD/Tbbjivts7drIqELBGPe4NFxdF4OpVO5rJRLOZviFx//5zM5af9I2DlO25LY3Io/FmNwNsKWMHIMOkLvFwuiyk4xjh7Bya24zRGjRpVCvgIeNSGaZDy7gdYebDi4CMTmKzP6yBxQ7OJkx5pFXW+oT3U1OnTG/v7+l7s6+39ZFVFRU0/5gvRSKS8dffucb/+9a8fZdXyS9T3FMB10eDAwDjqfTIQF4nnFk43FQbUxsn0IZXN/muqt+cz5CtKJAZqr7vupy9jEf6dSy655AbyJ+ACpdMCBf6wYemyZRHAaojbnPveG73UwCXWvTvXJ64mF4mecOR8250K2da2PdYHGPRmUnBXAIDEPrgsBy6IgX5Xi4Xbd/m5xrVeFg5HIOIh1ll1g3mAkdfbBQ5m7ciGKkxHY9YOIO/ctcViAEgGPZTAzQGW+DX6LvJRzmuV0QC/7GCfZVh9LERMDI+eaF1tu6xt+waLFRRbKVxYxez5NmfabAxPm1h9bLSWja9Y85MPmM08whaceIZNmjLTZkycauMS/YidtD8SsfWZhG3PpKKFmUwu0bzDiuIFn099/2cTBj910cXOjIOxsWXYnR0KfzYj8LYClia1RgYORBxKLh6LOfOAwPBSaUxipY2GJHYF3NJayu4nMgVAwXEqeY+DlEek+8gsQgA2lfTbKd8e5CduvxCPxLMFVQUDxYWFT8CS3XHKYYcJ5MJ33nnnCVi339ze1nYS+wx/K+6JyhdRwW2BHdaI7TlXRGPRSYODyWYA7kryPINoy26VgaMzmcyPysvLricsjURCO+HSwALtoPvDBbcSyEblR7Bl+4+fbbhv05OPnLzp/uXp4vK6SH/NRO+kiTU2CLg8vXGnDQpYAA10TDBNLEAAJDnMFnz0UxKS01vXWHr5N72Co041+mK+LNhJN8BMwNZPf+owIq2eO8PaeQKbW3fY4LZ1FkOcY3VPYpoDLGfvJu5KdaO/snih+TIqTQ6Y19dr2fIqy1bXWhjThgj7EsPN27DT2modmDxEK6qsavRoq54602YtOsFSmEMk179kz934PVuz8Dg7evHJFkEkTFJ/Ke2eEC2C0+UVjnuhjaPGWm9LY7osHP6QfeMnY+jqabbsykEA6xBo/eFewT96zW8bYAVgcf/99xcXxePFRaWlr86ZM4d1asedIIk4sW8CPayAmqBuSICjDErnMCw2Dq+4ET+KPPOgx6Ft0BxoMSSZSwETbTuDfDdRXvqj4Xo4dx4eOE7AdmosYlo/7VpxWH29wEppEhkeBrSWJgcHn+O6hhWwAfRYp5P+Oa4zP/nJTwrQUw3eeuutZzMZfxwviGM6lvs/F1988f26eT7c9cADD8xsamp6GQ7tI/39ff2AGEk5SVJ2IFutfLnf/YBnhRVDXhWif/Wd5x6eMnPmcdOXfCBdXD8p+tKa1XZUZcwqKkvt/nXbbc8WjDxTbFJmoufihZ7Pfj8fsPCzSXZkJtm4HLOZJ55rxWPr7bmvXm3xJcebj+jnA1wGsEUEXC2NNq2aVbuictve0WXda5+1ws1rLdvDY6QOB1Ti3FCuIx/CWYV87LjYX4BdF1wV5vDmw/V5VbVOTPRr6y1XUWPZMZP8SOvOXOlAfzib2m1tGKHuRsdVgmV8+ZRpNn76LJuTHPTTLU1ey7oXbMzsIx3n18g9i+lPoUf7QNxjymvtZe7W2tKYYpP2Ei+35/HENbcdb393YeIQaP3ur9k7reTvJbKsWbNm2AqTye24q+OOO65s4aJFWzEDWKfOKp4g+6YZaUuLK1pDnAArr0DhjBCUH7ra63oGcStJ3wSJvRcS6L7aqrMJEuigjTUZcirsx9XA7RwfiUYKSkpLBlgNjA5lc9yeh9lB7Mwzz3wVTumn1F/LovwToXBo5s9//vNPK9+VV145KHCD6/g2uirr7x+4F7D6b1YnwzJZIM0TqOGyZk9BJPIpxEMBGjMVy68Qy2KEvIJ/v3ap7DJxAG81cG9b7vQz4YIrv/3Q+o7O4x594ZVUY2t3NFI/xWzCLJs2rsp296esta0NBTfDPmqSZcfNNn/sLPPrpwIe1eaxohdGuR7r67Tt7eQ7+gO25Bv/ZcnHVlo6hSFEhKYBODmJe21NVj9hMtxNxLZtXWuRdezvgSvKwbnlUK77rPj5iGsCK7FsPiYKus7BgeV2bLbctvU8rVfMf/UF1nhXm6193rytvCJwZqnymnC6pIxVxrQVIWoWDyRssLnJmlC4P9nVai9FI97g9Lk2bcGxVltUYg1wbA0o7PUCyVC1OTMIk+XZ0RWjbErDxNge81KhwqIFhdmeBwArFPCIhVpBPBTe9SPwewEWCuxJTzzxhESyCBSFqouKigQIjUxYB2DEiQOaCGWiFl1HfKBkH0Oc8paQp17lOXeBcze5OTYQ0U0ZiXsxqJprAZgmufRMUnQHYuIkzhWC+1LMcW7l6JPGE5+AigoKCk6gHunDHEiip1J5mzd//v11dXWDkUhsFaWuQAX3tZ/97Gdfuu2268bAXf0dk3cCSvscm5+/pPxwj27LD/fwP/zhD0sXxz674sdRyjdzv8iQ0t0+iGX8UoANFsOtnw2DFm1Q+2QOIRB+C4EJuHy5QNrC7/ubOzLJxPGx1m2pRE97bHV7pz23rdEWVrLiVllhHQNwUKzudVaNs4GSKvOKy+kz4hqiXah1i0WQm+inRTASTSLiPfjC8xadvdhO/entKM3DBptohTruboK7qrYqVvH6dm6yvqcetDirhajILFRa4YeKS/0QIqQHF+UBctqJIJcyIcAlDBBFJAKyB9E9GQxGfcDL3/Cy2XOPm/fyU1541zYWA3iQEh8FeABdDNG8cDBpBQDuDnRaK9p32VPowprF+fE3Gg6xgftrIFL0YU2yH9s4n77X2uHjpsRYR0yFYvFji4pG3+sGd2hR4vd63109h/79SUfg93qATP4tY8aM6aAHAiVNSr0/O5mIbgIzKeXSZSwkENlKvMwRNGlxmuRW+sSFbYQEQIrbN6i8QElBbZX+azN0T/4osOmBVGcpdUvMc4DFdRCwQDS0x44re5zjFgg2ZCgsXbrU5Wdls3vq1GmbZkybljjvgguuj8XiR8MbTgMnv8uk/pR0UnSjHzBqzxd1QJc/dwcWEdAFh16Wwl09xiz2ZTi6+XBm4gDty8uWOcAKwOqum26qvPWmmy4fWccbnLNkP5QjuvSjP0Ixfrol+9J4R4hF0BGVIuJpH+DUaeOtPZGz5zv2WE16wGYXhfyZJXE4oQ7ztwIUG59h0/EO81Gk++zly7AyGMcWKt6yxR66/y4brGiws/7h6zZq7AS/R7qpvj0287AFlmCl7u47brIYq4KsAKPrSmOYnkDP3+exCGEZwBCezdLZnKUwX0i17bRk0yYb3PGqJVHqp1iVzKHXckCmAcIkwsfeyl+7ymzdKsvBxWXg5tKUzbK6qPsa1wU9PVYEB9iE+PkAbV1Dei/cYS3c31RAripSYM172m31ng7u79sM9j8eNWlmrD8WT3vFZe8t/faN17tRW3Y1WHdw4+E3GPtDye+AERBQvKWQBxzHneS9KHQdqALyiQWvh3RsAUhYTR/WLx2wTFDPCNDZRpwDBuKksxK47RWocxoR4sSGw4j7qJ3buObtN3FVdVy7l5c4tWs4cF1WWFSYKSwa+7Qizz333Oc4ODC58cYbv1NQWPDpTH+fh1IehY7Z1dAynRDUXm3Ollh4ww03XBcOh04LRSMsPmReueiii74zlMsk/rm+sAihe2c6s+kfMCSLOQ/a5HRu+fz7HxZ8ImK4hYkfe+nf52IFH2OPHxghNifElhjPevoTdnR9kRXWwlV1J+zk6hJLZgtMq5rNTVstt3Mr5gzom1Qz3Ipb/dMVXIus10OsDBYj2q381S12zBnn27GX/Y3dufx/+KXIWRRw+O0vaeaa5y0HxyRuqnbyPCtGFxVHFxVmu00YhXgIDku6ryz2WxIPnTgJt5TsbLEBQLIHEbIfwFGb45g0hEjDEBSzBURp7K68UjgxcVrUk4GL8mT2UFbhOMEYoJgtL7cXOHbBVY2h65iP2nTypNisvQ5OTfefCyc5EV2bN3lW9MmmrZmi4pLLCn7x2MbBD3r/snQFW5Zo2f6Deyjm3TACbxmw6JRMCaRHEsshBZWbsJw7RbmOmsAcBBCa3BLFxIUF8cP5FBeEfJng0h2J2+vF4l7iUByXogykCwB0L8UN5K9H3icAgEbSp0JyrfwFjt8lby/nw6AVCUWOg4vaUFJW8jDpbE97JLJt27aIdFiRUGhQ1t2UKYGtmEjyhhUnnBDi6ACIo2zP3DncVZdWGmOxqPbiaVEBjFkWgVxfOMag1C033ngR8P0XsXh8uvIoqP2kHdgqfsEnovbctenixReeguXs131ZpoeHdGQ8BMrSHDimKUuOtULuXWH9tgkO65WdjZbubEaplLE4AGBZ8mHa4LNR2d0TK3f3DFUf+qwc9ZTmuu2JW39sx194uR151PE2gDlDC7tmMrXjbMYFV1mUbTMS+bBEZwExB/b1WjfcUm5Pq+8VFHgyh0AcY5UxbNGSSr+4tMIrC8+2CkBmNECW3tPut7/yjLdrw0vwvbitiRU7zgoFIXw3XGIB7URHpTr8AsRWOC2BFpuhLQwIhmjPLvrcxX1aAccJ5KvGo4QeyEYWBwrGRm1mvNgmFpZbZNyU8MreTn90WcU/T3jw1WdXnDjzvgV45nhuyGWRG4ND/949I/CWAIsXWyKadE3uR1pHJtlwbzl38eSTUlzAprBHE5E4DkPpwXFk3FDW1/+fLxfcWxNNgKOZp0Y4EwriApAaWdljXBwNKf946J/Idx31SSRVPSdDU1Kp1BeI00qj6sgAWkpWJ5/LMtlQTSHupC8m6jda+ZPSHeV7TmYbGJBqXGBUck3atUMdgEjYcWPEOzBTflnG33777aO6u7tujYTCV51//vmOa8R04jxuvf788y9eA2gNAxxltf8IJTtgtehDo3CZcEsOvRIcCsonEIE2FTCs3S27bcnCmVaBN4Tt29vsEagPACtMD1oMQ8wM4pi8LjjbKzgqI17kA1JSdnv0T8FHhEwmB/yC/m5v5Y++auPP+YiVsCWnD5AoHTvZBlCi9+DDqg/3MX3diJjysKDtOMJO3LVqVVErglaGloBFCo2ewAcvDGwHKrBS0krwyFB57GlWM3+RtT56t7VgfBqtrPHDqRQ2YIOYP8CBUZ/MLmQuEVI92Hrl6AeO/szDnowXypLcog8Rcyf3rwE463t7rBnuDRi08gkz4MDi6LpKvOPLwtn2kB8O5fwbTn5wy9yHFk7ePWxsq04fCu+aEXjTgMUEVF4B0TBg7NtL8jDPHSgJrJRfXAVvn+Me9iuXz6vJHZRT1jcMI/JLbyYdlcTFTfsWpFIBpcBHvtlvI/2jkNok5f3nibuPo8wrFpHnc+jktgpUOHezFzssBzTsX7xj06aNO9BHjc9mclfcdNNNd2MgupxyQVDfBmX53tPTc+0QfnpwWDm1S25qxIlS7ZCt2Z6urgdQTP/6kssuu1YrjOLiMqnU7FQm8xWyzwKw2CEzPCYeSnbXDi+UvS4bK66BC8LUvjAq04QSuJHullY7+ugjbcaRR9raTc328NZdVsCtS1k9SwFGWfYEerKnQsnO6h0Ak0IUo2lM7hDnaMmHH6qHIWcoFPYyu7db7NizvB1Yx9vm9fSOx4gODJSCCwLkqA/ARcmOcSig4UtvF9Sie6B38lC6+1qhpPUYq8HBpfEgs4dVlBbbifg4Ztxkm3TeFTaWFcdVz6zw0oBZIXsN2Ywp1t3V57NaKaANxQBbOFfcNGMWQRsQH9OIo+3YbrVjRV/H6qW3qxG93B6Ld3XaYwDY+dPn82uGx4gI3ukzgxmvuLQm2d97IxWfirGtflUw4x/6ESXuUHgXjIC46LctMCEDUAoU6GniJBIKlKqgKdCcPE3nWKc0lSO8xqop8vVDkHcS2QRa2gLUrCIc3eTWuYKuVTfhGS5/DElJj9zhRNWzOF4F3Uf6VvJF4YCYbUMB4JCIFtHWnXg48kkAi/10bkLdjK7qS6weThFI/eqWWyZiMPqPeKDYiEhYAIflLN3J7xYM2Ifo5TdG+5T7Jg0cc9lll52nu2C35dpLC9tYsZxJ+tcVnze2xcUmeiuGr2zx+Z8GpE7L4CHHjxVG0WFZMRzLnp0tdvSR02zaouPs6bU77eF1G600wfYaxDR5QmDDHWAFKMFJuf3aAE0IkdAAAnFVEulkqc6+PMRETBiq6gE03L2ceKEfnn8cUh8cHPcphHmKUw9Lwc6eK+x0S5UYgGIJX1mD6IadFdy2VvAc1MDFSZSzLhT7ff1S0KPXwqcW9xRLXAzn1LRtoz3Z0WbhBSfYqRde5bbuJADBYhwHhotZdQQE3QuFEj+HKOms6WmnByh5u7ZZaOMaS61/xQrYZ+ihnGdPIfsgBy3ayqvw/JO2A84tjnisWnCfE0n396Qj5ZWnHPvAq/9bY7p0heO4OT0U3i0j8HsB1kiQCc45aoJFEK8EKrJhKoRmcD4GikOKh7e3UdAM0uarDIDB4Y1BS3kIAiHdZxYk8HkaEiiq7gMG0sRpCbR+ziTV/UUCUynk/xfp7yfdiYNcDwdxO+K6LrrkknuYqxdms5mu4tKSSGVlxT+TaRMcVXvSs62AwTJZv7M5+wuYPhTKkJL6XlVFcFjOWyrK+/fG47G/g5P7AGm+uCtESfcM2HAdlQ0XurKL9eWeACyltyp/zwWTUIl/zS3oxwtC4qwEIr24dZk3e6yNWbDUHlvTaC9v2WQVabbASGRyAAVHgngq7sqBFWChiS0xLovtVYaVtUxXq+UG4IakA4Mj0uofDvz84sXvc2OZA9ykOM/2dsKYwZVxX6sBpMZMsxhO/MICKtkkCAS5l4Lsu3DX4659uDxkU/OwrXLgiM4pQzp6Pr8Iq/siHAA+vfZFa6seZUvOu5IVxGLbA5gNAlw5QDHOdQyngrgiglcCDKV/S/HIAbBwP2rI9t1+JXVGGO9++hWhfUnGsXj3LnvmyUesB9AsxVVzgrbxcZGw2pL0M/9m9z03dcWJ6Ehve02P6Rp/6N87egQ06d9sCLgn5XfnmnRB4RHnqjPMpBWnIk5LJKV7F3kc9wI4CLgmQFrul3g2B3ppRB1cHjRoIum+KiMQfIxyLdTJ4bX2EO/CiHhO/TOIPArO53scJUr+BcSylAO9T5Eu530rOA6LhaTJI0M2r39aDkf1KCDzIcDlSLzRlLGdp5fVwEfGj5+w/MQTT+yDQ/qqFO6JBMaM8fhT+fIJ9Fal3d3dN8PYfPLSSy918RIFla7AZmH29GqbjDfACqXEVNvV0DAEwH7uGxYrKchG4mk/Eo/GWEUbSKRscn2FjTv2dHt8fTN6oB1WzvwbFFAwPDmtiUi/iCU4/UEcRKHdJ26ny7kllrkACOLyyp+7FOU+9WrPYMHhS7xQaaWl2SvowAeTCYFkaNQkrNdjYBvW5QIOTCLSAIIv8VJ6MN1HoMVRQfoy2XNZFu6unW1BcR45nFoG8OJzYCxSAiKIlOVwgy+ue8mPz5jrnXvBx6wNzmvb9k3W3tGKLRiiqERBiaC0Abfa+h6G2z4ExFJZGl/xRSy5tjlr/PD4qZZG55VBn2VwX6vKKv2TTj3HC9PG9clEaHJpZTpbWhqd1JO5ZqvZWbb2y0ONdS0+9O+dPgJDE+IgreRF16+/lMkKUlJIh6Uy/Jw60HDcAec6JplsScoIoBrycbxpzi5LeqP9AnnFIdVAqldGpSz+HBh4VFjtIY+4K4mBF0P6eMWvlXagMLIuzq8kzzToa5RxgECcRNK/guZBaqP6+LekN5Lm7sX1cMiDlgPd4cgRJ7rfDTdc/zhW88ewNWfN5ZdfMV/tVZbrrrvu15yfjcj4LbgvtMkMoyY20594bQdaiM56CeDXRZ7lXD99xRVX/M/oReee3R+K/XowWpjLFJWFIuiYMAe1mnjYDjvtPFvfkbSdO9ZbcQTHeiOfpvRSMmEYgIFkBc962/EdQbcFVArB/QWSUojjOM8wT5DoVfG+yxzn1NWxy1JwYGGBnTgwOLQQSvkoAJZD/5XGBMLtERQ3OQxUiIUCTdcWOCLKOM5LHE5JhdWwtaZr9dM2iG4rzFadHC5uQgCRrOr7UdQfPnmmzUTMTMElbmveYVGAJwPnNMCWnS2YZSS76Iv6QJuLKZOqG21Lcfe8/p6f2Y4dG50rG1ZRHcgV0A5xXUeecYnNOPwouw9dGeyxjSqvyoVKGctM+tzG0474tT0Cty5u61B4x4/AyFd8r8Zq8hEB/++U5zofCU6a2LoOSFyVOCjtHSzmnLfflVNcq+oiDP+SBdccBW6HQ7pPJ3le5HjAEJRRIufS/4gzupUyAsm96lceBeIDgDuHyw9A/4eM+lq0QBhnEsMc3+e5XgRJvfIQ8V8PynK9V0BUC52ASUMbXyhGN+VLoY7BaOT0009PYtW+kK/qPF2Mh0xE4r+Hk/qmCiMKXkGen/agcC4thZvRaGo0OAqzACpnKzUwkEAi88K4wrE0nEMymTrhki9c9x91kxoWd0YKs1iqh9NM8ALKLTrlA7ZrMGYbN63DZTGMBpWyDEbdAAaV+hiC+p07UVC3A1oAFZbgAhy3GpjnwuQCxsJR3yut9GITZ2Fz2mblC0+22YtPxFPooK2RDyqBnVbqcPQXog4ZqDrOqh/OB5MI/Bmbh0jmAE33RbEugELVpq7nAw2mXTmU9UWjJ1r5pOnWzupgBgktXD/W+duSqBmFBrRhGmv1k8ezIskgjQfUShFVBaQJNln3sw2oo3GLbdvwijWte96mffCjVoPI9+SN37GCqlF+GtsUrO0j0sepv0W0rZeFgg9c9UWrrKuzW55+CGeEhdkCPnjhR6MbkjNOm2sLPcnMhxTwweN6Bx/fSCQUJyVSUF4BjKYaP63BlONs6Pc04DyGFBkuekipySQaBiuXOX9N/ACTi5nkgEK6rr1EsaEq9v5PnmOJEVfGdwgcWO3HCakE+QKwEnieDMkNjcBK8eL8lEe6M82sa6BvQZMh6dTKiA82bu/VdumWyDOyj0acIAg9duqvKsorQui1ts2ZO/c/FaeAvuaJPR0dp+NCMNXZ2YmvQDYG54PawGlnLBa5rKSk+LOAVktXd/fH+IxY6x33rrzEqooX4wc0kyssiUTiRT7uQr3FZ5xlXfwubMQFS1HMYz8dc42KhApaUcvx3UBmNSIg3BWui71BdEgornEv6iaxe3KAlY/ZQDYU9eMlZV4/nEv1mIn+/CMXeXhTt06s2rOIhxFAxq0KwlmF+KxXFn2XSEanGgaP7xjhC3+oXiGxODvXPc7VSzVr6ASurdj68Gkl8Ko58Sxrvfdnlt2wmu1DuGiG80kj2pUATgOIiA91ttr75y4wvpVoj2MBP574sSjjSyqrrXb8FJt0xNHWtnObhXGh/Cr1WMs2y8HBxRExU9KhCTwBskEAUEa1d992rZ38oY/bGbMX2u1PPRRmlTETqambbk/d9Al68n17N3z9iJH8/z24ifZmBoH5IK6qLJ9X+/uGJ93I8uQT9zIWkpgnY05mzv6BfCRpmvkzSR0Dwefb08SN/Gl2BckTgI9ESAHWXeST3uqAYKVCQRrHE7i8FLqDMncG8cqjwLUDLY6ncvn3kBTx/4u8m/fNS/x+ATExJtsquKtjAKzfaoM05c7+0Ic+dAdAFsFrqbimA47VyMr4fNhHYgXxH/f09G5FFBRwmk06YV1NXc3M7oqGbLhydDjJ3sAFR8yzgjEz7Lcvr7bC8NB2GJeXO3hwPDYIN9XLhmQmcLZlMw46i+GI2IQs0czJacoIZ4WHhqy4GkTBhPaDV9XZOVd+xjIllfb0LrwmtOwwPkrolPTcGODrRTnP7xQKbRTsfIQIN9IAg5+lPvRLBoj58qPF/VhKdZbqshGDfXTN08qj4/Bky8YqX9nU2VaIR4a2u2/GFQ0W7VoVVFsxEI2gP0vIBgtD0WMOf4+9wjadHsS8RWMm2kQ8pBZy7mziAKJBOK8MW4V2Pf+EPXXHddzDtwI+KaZflCzunPXlHzkE1IdhkyxEHHfBx/wyzDbueeKBXGFZJVvhY1v76ybOtavOhKE7xGUNPax37v834rBGtnwkuOn8gJOQyamVNvk1x4g7rg3Lb8Q1qR7VJ6AKuDROh0IAGhwFgkdB93CP1wWrfNHgEIDsXlxRkMgxiH+Vc+Qct5I5Ivngp/qWIduTUrinKero6PgpK4fW29v3RUTBO/L6rgygJQ5MszY/c1+rD3HSl8GplO/otYroo8BOQI9m7ecfH71j1cyBLU9mwrWTI8lQoY1GyV47da49jssYSbOySqcAPYDTATwspeYTVVxt8fmT/KK6Bq/t59+yyPT3YDzOJ7jYouMABNDgs/AW4SOoiVTGyitK7NTL/woPDpX25I6d1ta8w+IDPVhm8nuDrkqf38rJDgtwcPdxzwvRE2NSt2KX7MeNab9sGhxgeHBi7j4SywAMZ0AqMBL3RR1ytdyLUj07mPCjR5+CuexLgCzKe1b/PGysMmXdVgDnlEShv/qJPivBsV86Gran4fg62HYzmvbXAbjFKPRxl2H9uK9pWPoBO2fW4bYTkW/VQ7dj7FJtRawyJsUVApbhklIrq6i1xx/8tXfCaR+0k484NvTQqkczsfqxk+o7mz7cYvYDbEn0o6z38FB4h47AWwGsN+wCkw0scdxEP2AlXZa4LYmR2gYTpLl68vl0rgkqwOpV3Mh8nAecVQ3px0APkkeKeb1Yzr6K43AYUafiAoCV7KJQO3TY738AvAJLgUovhOLGhSAtf5mPpC/or6J4bHDicmdnx/01NdXTsF7/yqWXXv4VcsmTQwCEAiydD1+PrAxretdOFGqkS43ipVbd+cOiE1eN/kSkcJFlXn3Ei7ENJonkOHHaDLyG8uHETA7vmsWImthYSTcF9zCE9boFuixEr8Gacd7co0+0WUcfZ09+6wvWt2GblR5xjHMboy9g64vN8iiBhYa998rPmo/91Qt8SWf3tletiA9KwJXhHgauCeW3QEb7DcWlOP2UjjKbgNtytlE+rZcYJsX9sJId8NUKHyTjUpPdFvsEtRIpzisMJ5Xcg9qyEO5qwfFmzz6GGNvs7Lk8OLUs5WShr72HfYiHJYcv8rNl5d4W9FGbIhG24xTY5FghRqExK4Krasf7aKyuwaadfbk1zFlgK5f/t3W377ZSxM0BgDC7J2uJyipjX6E9+sRDdsKS99lp7znJu5/tQS1l5Z8G+K9l8GEZD3FZI9/Pd9r5fr/6v08DRwCGdFyazKq/UnUqTWCkcwFR/ihlu5TnAotdiguC8hIESrKaF2clZbjLw9GJWRyVaZiCsjoqT/56NccuaBZ1VROvOuUKB9OnvVZBx5NH+i6JpdJfCWyHA9fqgMo4mzGBFecVKx5++DkU6cd1d+/5W8Dqi9oEDXel+ofLvtkTLMwtFvG7/+W3ladFWTUswj1xdOHZ4V70RKXlJVbK6lkLvtnFoWQxV0CNPQQQYgrcdhuABH2SrMNDu/GRvn6d+ZPfY6d8+9c284rPWO8Lj5CNNPbd+bJYZ6Vt/sf/yQbrJ9na3e22ZesGK0TJ7mNzldvD3kDy6AOnbpO0nPTpCzuKYy9gbk+HD5gJIflYYTJrZVVouEuwQk0RNyQCawRkj5ZDae93o/xv3mlec6N5fLRCQIbPKgthjhBmi4+95wQcBk0x06fr1QeJoNhMRTnX16X74Yz8jWvJ22kxvia9HV9cK7t227Po6HZj0FrMYkSS++yEi4xj4f7+T37Rps8+Ak6OPjGusgvLYQGfQTdXDAA/+vQjGNTUhK846ezs+xcumXnBY5tO13NaOqTL0umh8A4cgbcCWCNn4MjzvbrFRGW+u6X83SQINMqJE4fkQCt/1IuuMAESJ7aVMvoAhMpyGD4K0BZD6yAZodZC8p8lBb1EKB0D0rX8cgWgeATnf5kv385RouElxDmlu9qYJwGP2qC8m6BrIbVVVvokDdWn83x+JzJg1X4RdlUvjqqv9wd7e49BDPy/KidnfdJpjSyr+DcK6OGxBuAHntX/5p7BT3Sy2haNhLP1s49h1sftsBmT3fJ/VzLjrM7lEdTt4aOA9DbathLCjMHL8TsByIQRp5I7NtjKh39ju3AwMevKf7Sl//cOp6DPvny/pcsbbOaVX7Dw2KnW0tNn7QBJuL3JPEwVpGzXKqOMTJ3RKcafGJf6fm93FqDJWIpPM8quPRJmLDGLikTDWLvzyR1U5LJAhVFkABnfECsAIBYgKS5NOi6BkN8BQGGNnkM3lQVMJA6GsbnyjjyW5c8Tzd+9E0U/ACnQwpzBg6OUj3lb/Txl8adFlQWKp46t+Op6rL3Z1gBcMlXW02pmNTGBK+ZFl33ajjj5HOvbvJqVVZoEZ5jraEOH1mPF0P2A1u7UoD+nfgKuagqu1DNaunRp8G6+0SM7lP4nGIG9RML85AxAzE182hQcJYYJqHQtkNCkdJOX6+EQTFSOWgFsJGEMNJZziYa8qU5HIDFwHCSj0fXk3cFxJKCR3elyjidaQDMPKoXUtqANansh8wHPv67J4sTupa4XOCrMgRZA4vYEnJ2Q4v6duu/huB1Sn6ZDfwEhv9g/QfKrpV9biZIrqM+Js5yr/inQ4ejnzk8lUxMjXuR/zZo9+xfEuQBnNZWNw+eoWizef0XZzdJf5UXCINtex8B9cibnxUvYy9zaHZvRX90wqyLD57bYoVeEfmbs3KOsbuxY3Mewp86NAOKWRDSt1El/BSDIG4MmsrN70hGnfCG4jmI/bS89scLSi5bY3MXvtfePn2H33vVLi02aw+rcGLAC31Loedp3N/qxng4sFKgLJT2WmUx+hg3rTsdJpZLIcSi+tJEZEc/j08zcjE/ioNzCm4XB8ZCu90LPqwoQCwFptJbHlaMzWRReuSysDmuQAim3RQhOCid9uRIU7gCsbWPbjbisRSeZ//j95mHyIGW97LrkrUEuZzxWFXNT8JrK/sEQAFjQsRtusce2YnG/DRFyNONVCAeaTvjYqhXa7PM+DNDH7Lk7brCSSbMsAbDn2lt9FK0eQioG7yvDCLc2q7Tq/X//dMukZZ639dDG6L1e0XfUxV6ARct0rUksUApIU0QUXOso8OCtHtrYzHGvwETlvXVckkBrC4lVkETDiZCC6kMza/KjzrLTa4H8Tm9FjNqBjOMArhDFKXpi91EHxau8gGg9YKU8KEacLkxcXRBWctIEHQdVQAKt26DJ0BmQ+qEgYFoOaT+hNh2fzbmASwC2FpJOS8B3PqQ2vx8wmpfL5L5XVFL0CwESm6NjUpzTxgXl5VVf1yRN9PXvIO9m2WxxPOivdnP+U/fsdtu9p6tjy/au0viaXGTMjMJQbjCdDYkzqMUDQ5hJmEyhU9L8d9wVwDJ8ZAgwu/cRjfDYKW04TQC0EOEy+MMqBIReXf2clRTHbcrYibbghNNtFa5nBpPUEQkBWh38lLCyKF0VIOB0Yn4mh48quCOAKosojIEZLN8TOJx6JByOvuAXFm9JdeGEvZTdyPferWfg24c/HLdtHSWxooIGll3msM3oOCwcTubrOTP5NcLBFdmEtBm+EQby6uvS4nrEHfr4uXIcI/ZV3oSpZu873/wHfoUBC1I6gOW8QMgjBJxRqGm7061lK2HcxXmhcyuQ3gugbYIrk7eIUUVAdUm5F8Iv1rwzL3Fi5vOsSJZOmSOdlpfr6uDl8qy0qdF7NPZsxhafGJ/kZ8+lH9dUdk3WM9P7cii8w0ZgGLAEMLRNFEyukdfBeXBUnv24q5F9GwFaevBtIu4hsCHpNc5M91XeoCzn0jFVcy3OR7/WAiOcAYSVR6SXSaKi6hLYPE8Zft73DsRtJ2Y7dQk4PgoJtGqJ/1G+HdoeJF2Y6pBeTX1TECh1QQIsTUSFNdAryku+cYAkji5xK0DAbIEPqC53+ZDqknvkjI5WsoXE1as8rxcAPDeOl37oQhnB3mKXXvtQYV35mHSogEXAaKhfImCMCtVzghTmWbiTIQNQGW1yG64BG0/77PhHJoZcq4bkzaXpziBmBltX247RY62+qsKqy2AWO3qcy5gw0nsfIhWmCxh0AVjSVWVYOkwlAKpsyE8md1LXj8CVG+y3v9qqNhz0wf/0p4MkD1JLO8dXoFuzCxZEI6UNx6KU/0u6cBEmFRGMWBF8o7CQ2bDsxuQW2fWHlTzeBmB+nXkz5pmdebF5d93KRyzrUOADRDhFVJAXCPciYtjq66vQfLQiiyGrXNHEtdIItrbKDU5Bu/Vj4uBX1vmHn3s5H2fd46178kErgYtLkEf+5pOMUdHWjd6jeH7YUVULd2zXXPuJBRm3Jd7d7dC/d9IIDAMWjRIQKAhBgok6FPM7/qce5vdeOqDhX62R8SOrJ34y17MgiZBsCHNgIRHyCEhtfAbS+3oYpHzaQC1O7THVqXsSFwCQTCpkT/U4UR+AjuZcSnVNPMfZqQznqldHzUWdCwxHjs2g6s3nFViCWcPGn7J4Vxl9NTkkqUmARX7Vd6Agz6PDaQCe7+FPi5CzJVdNiw+0HZ8drLSucChcCkeBmggXMUNeFbLoqrDkRkSimbIyl/0TDIs2JyvOgZWT1BChEAUFWs6QVMp8WtKyfaO1TZqMC5dCDCzDzp4ph36qn4kbE2fFZEdhDweUjCAG4gI0838yyfAP7MnbBeKEZSG00q6vVsv3OpbPoafL3HgPpSsLfVuzxrO2tqE+rljBkoGtIGVFbMnpX8kNDnwZLu1cibLUr/HGxkLSpUwzaDc7AZz5w+b1/MRg8Y9iPgy4eBwdpyVuK9Hvs/cRThIuciMLC4iH8r8lHZkPaLHf0WJykUO/NmAm0Tq231tUP94WXvRx58OrkY9iFKLjkhubLBwbgBkqWL/aGqfPXlRz28Mz2j1v/aEPsfJk3oFh5KQMXjythGEc/LuDliY2wdUXHPft+8j4ID/HyeSbDell3wiJq0HWcXv+FCfaTRxLVD5vtB0P8VPsgEg3XRnUpfoJAUCuVB6oAToG2kqaQEmKd7VT99D1yBCMh+I0Sd3KJPlGxo/MLxTDKYKYT1Q2rqmvJUt0lHjIBmnZZg3Xwbl9+tPfiX0XbrEhmzqpJ5mIJtODGTwWRFiXtComYgYTggxiUyKNr3RNWEDG0xYZTBrkgA/xywGX46zgrjB3BzQFCBDXaLw4B8D08dLdu23M6AYrwII8hjg4uAcswvASURCt5CDsWzpCvb/NJDKX2BO/3O56sHRpxFZIGb0sB/Sog/kgSXqfMKJv+RQPB4QO5FLLl4vrOi98BI62PO+/EedqaV8afRnuWWWDBmhBYcwVfC0yA9aTTz7LGh+529mcyd2MPnKhXwPXJ91Ajw+PD9bF74hADbCS7VdOTv8QF+OIiH3Ykd3POJ0yYYYde/mn7RfX/BNjmQTEyceKKnpQzza9mg3VjOKLO6GTqHW9ra3Vu3YovMNGYBiweAckimmCKw57PIc6+gV8yyEPAuJyBALBgw+OI+vTxA2AQDquqZDi9On3FzkGYbidRDhRjHS17RHuIeZhDrSY8x3Eb+fo9GBqR/5cinOJdQIsbb2RpfwejgdqE1l+t6CFMVcjPWBuuaCPseaNSDW2brLLhxZ6sGK27Azy+bBuVhVBHBJzdpJblYNjihR5eCrohxuK4ycKfQ+JKQHQkBLLAZC8JIic2QFilROvnP6KW2kU3T9OYPZYR7QonEwHK2tsxYG5AcCI7etqx7len08d4AVK8XTqe5kHf/ZplcYXl9wyZ2zFijyT5GLf6j84saGv/DjPqZTOLl9+h805aj4elu9gA+FR9AmZNsueGvoDYEnsDeMtdBBfWrXsa0ztarSdm9fgTXm0s+MKYaGPbQnSJeMii31xnQCT836q1y0W972KSk+2XzlAL4K+ig/I2oMwdGdOP8xOv+Kzdvu/f8bCE2bC3DEOiJpZXNVE4Na8iWkB1n/amh+4EXyrnT2U/w87AiOBQD9c4jT0a6jpJlsit/T/VppAGQFIKVQMSU+k+gQMQb26p851lM7jZUhhEqR4iR9SdjvAU5t0qut8GJqKgGE+bSXx46FqaDG0nfgRXAAxQ+FVDksg5ZM4+Rik+6n+tyUwdLRt6NYZ5ENVyp5AuUVO3n333fVdnZ1/x+Q6BT3XZBbQyhgriZotN95ww2PpTOamz/zg4QWxZB/bTRJO3pQSvYeJGCnhIwtIavpQhABryKSBiSZdlSNuRbyU8Y5hFKei1b58cEDGlhaMECyBKcHWxu1WzBBpoa+ns82PZLHsQCzC9ODqzP3X/7Mr5riqa4Vqb18IgGvOnJitebYFFDwmPPuIO/jY6vtpOEugsE9SwOsViNMn9IFJJNOKydNtJwat+tpOjlVK7RXE6NQhPB4G3VH+sqICLkRCxDxPAOZVVWNzhl6MHoQ62y2MoesKLs6YdaQdd9En7fFbvmclU+ZZgnHgS9WhLD60WNZZbD++vdQ+ejYIyM/PEAf+9o3BoZp+rxHQhN03iHPRMxbIxJlUOr6pQN5yMo6GBArS9Wj2qi5xRSIBoUBKHIXuE9g6yWRAZXUvcVeyudL50Ozn5ABBHKE4KemiNubTxxA3Suf58vlod1C86hRAvUcxlD0QWAVtdqCtfG82wAWVyleTuCHuL6W9/c3f/E0SDus97e1tawsKC/93SWnpEcwCvJL622ASevGnNammtvqKgcHUb3qyNtZZoScHQkhrfMO0EC4L9ypwAXzvUFLTECjJ3QsrgE7JThomBqQhCqp3YpKlu3KNVgQkUCNOewhlWzXAN/5K+IJ1Ch1OpqcdDhfgHkz8e+ben/zzEBe0LDTEVblK3v5/a9akTIDIO5Bd+8LpWMzfw7acCNwiqEw7BbZqM8amUTjMsLb3yIAVHVWKsa2sqLYFbMM5ZsFxNnvMRKtA9JN31YGdWyyBDVeKvFHZae3aKRMGp5sTJ1XY3WW9z//W1u7aZhNP/ICNmrkAf37d8s6ZXTgAAEAASURBVDYpyZLXAVPcro6xhS/+Vhy7HKEdaH64pEP//jQjoJdmr8BDYy5JY+u4Dz0wAY+4ntcNlBHgyHxBs0TK8i4o+IUWtzUGQslgcpK3jfzKF7wQKqu2CEC0wvRWww4KLIS0oqj77IbUEb2FDti4ltJe81ht0sdfx5F2IL9XvaQLTNVvtLm2GXq9oH64UFlePjvBLzwrUMny8qJdigSsCnH2dzNeRisxNu3FseEXqmtqbm1oaMCBQ0esvb19NFzEyU27u//C0rkTWEPz0/1dXhFYHefjD4nduDpmP5+kQXFY8voZQoclrkm2Us6CW/opjEadnop70nH91+2Hgq61PUYTnzrCWIiHpkzns38daRz7RTF/uDl130++QGb8xztF+uv9UAS1/n5HiZmOi1uRyW545czQtDnPe5nQYbB7oG0sInFP5glVmDj0sq/Q3vtBi+K9oQrXMxMwZ6hCLGRdwkYBRLOlx0Mx34suq/mVVbabT5G1rrwbbehCiwvstXKorUA8/lLG7yVsvMZ+4EN2zPkfsV8t+7gVzVkMl5X22DaUYdkkkmlrP5zOPWVtcxjE5b9fPw+V/r1HII8VYiAcSOxXYX6Sa2JLvJP1uD697vQs+2UmgnRxTzJB0EwRILVwHBmkQ9pGxDSonnNxVk0cg4khINMM0z3d6h3HNxN0P4U9ED/LDrAqFJEPqlN5dN/xED+3LkznvwCuEQpmdlCX4sQdiSMTyD0NabAEpgcKMgxVu62quvqUpqYmzrzN48dP3aQ4dFTvAS+m5EAc3DT9gI9XfE/x+aByGx3Nv3hcXVXxCQPIfpFMVzSB1XkBG3hL0Df14yYmgbFAEoByfq2w1cTcAKsANUnNhmdzrdfCGXnEnSjIQFO2m5r86iZ7DPW15jiZsZnI9LbvjIYHetakphdf5vJLOb582cH66bLoH89NYxaMm4vieQbjp+s3FwRamD3Yc8+ladcF4UxmNbJvDC+kuUTTjtDYsy+xElYAt2pF8/QLTJ8pExi30O+NiIRpwCeC7q0YF1jliIZxvpdYc8qZNv6Usyz5wStt829+ZVufuM/iABe/Wqw0FlqKMYkgHt7/0pN2zpHH2bz3XWyv3H4tRjRH0SP2YfJRi+KcN8890No1b71Pb67nh3K9yRHQu5Z/t3ixDwJYSiCTjCg1UfW2SzSUctwVUvo+QRyUXmABkDgr91LnbxScS8wT9yQuSKDF6vEwCAacniaLmzAqSxg5KUg6aND7FUw0gazC0EweOhfwCBSlyFf8TOhw6r+d+0hvx8FxYjru5FogUgedxrk8hco7hMYiqDM4EuXi+NZC10cad+w4Up8Dw7fVbfmPzHIe69d3CjU61LMfGPOZsDB2XNlR5dGFGbifiNSGgEq2daNlRo3n2w5lXi+eQjMAHl/VQTTic1eQJ65CHkUBqHAady/ZDCp/WoN9pu7l41iPQtxTj0/xEICVRdwqqarLpfjSa6p9V7YwPXBxZtk3coYrHOhgzzcAKTcG9ENjrTEYDoyPnqEGMngOw2mvewJY5UFroz993udDBQXXYHCas8MXh+aeeLo1o4vawGslv+0D/W3WBSeVwbI9hLGrJy8SiYTX7sRdOgigGaBUMWqMTR8/weovucr2jB5r3ff/gq+jIaZjz8V3Ey2GEe7AlvX2IvmOOOtiG8Wew47mHdbS1WbtVNPT1TbbtXnoa0Uaub36+rr9OZT4to0A75RbPOPYQKWfg/R2HziQSQ8q/9PsRKQDvoj5fAFIODfJqpEX90APuZukekjK+Eoo4MSCvLqn6K2GkeUCrk2dFRhJ3BRASXemlUKlCzgmQHoxV0Mqrzaov+rnDZA4MHFZX6WOf6OuDZxr4mpSa+KKowuA/S/4TNe/MBE8tuxsqq2r+4bSlmHKwHcHV/FFnbvwQnoGIuA/4n1ULpB/MX/+/Hbcy4jTzEpvlG7yJ3jYxrKs77HxGUajD2d3r3il0xdjNRtD/9wFRwEAJZFYnY4HvQschla/0J6D7jJn8PWZVGdhq97o01sgCPkFXhA5ECE9r7gih6I5lOvv+mz/Ld942T7xw6gtu0oZDhjoc7DAMQxo+XHVc9fCgTxtuDTlJS4wFzlgfftFPvecK5vb8Mq3Ikcee1mqvPqIifOPyna1t4SfZstOjNW+Xm0XAqBY0bQCnaN3kkgsWRkn026voRcHwOG+unM77RlZ7yM6jj3+FCsdPc4ab/ovPv4aY0yqcQqYsDKU95s2rbWJi0ZZ2cKj2Zkw204Ix70i4jvaWybePvOEAluGz33NA43huyzwHNTo4FkEc+Jd1othLBDz8Fk1Pv/ze8B+6GUMJrDEvABU9s2sPBoYDdABX/oRZTXJ3czhKI4nCIpX/QJQB375AQ/S3+goDk/lVId0UArBWyY7rVqoGdoBbYN2QeL0FkPDgXa6VVKOWrn8JiTwWgD9hPZcA32cc4GYRMZpXOvDFXdx/qNILDY6FA6tT/b2nnHaaaf1y5RBRqGk2eWXX35mf2/vl6g3zWfsv5NMJtavevbZ9T/96U9fveH669Z+e+nJp3b2pkrijCSg4xXCPbFbz9LtO2ywdQtcWoFtaNmN7yw2CZPmfJoDWvoAqvRWcFO+LMWlfNfqYIQ8cSZ1jMkdhrvjE1dqBnvx5HuTtcBoPJJsb7rLfvzF72H3GbJrrxoGIpdxxD/6J+8U7seK8/dDP4SeJ8vGPL3K9ROQgP0w5YU4fdPcse7m55Xw5tWMubpg/CRrfPkp7+l7b7U4XlW9px620MvPWGjHFjScrWzBwUpdm6PhtvR5MnlgyLACqE3NMhaNcY4fCCuCO2vC+0NqzHhrOPcyy2zboPHlbY1gjp+0KEalK/AD34uVfDPA/3R6INQByJc3jK+98vT36p2xZa+9R7p8VwSNvZ4BhOfsYR3uu6LtB2mk3k/hBnu6DhDocJRogZAmnLPyPkC2IErAIFLeN0JypQd5VH8QBAAqr/tKByWl/ZsJwX3FMqqsOiWFu0LAEc7nXPd6lYfn9HD0bw3XUyHZZJUT72yyOOohS0nPwbuLYxMrfh/DIFTc1oUQModbFGBN3YHdeRx1n53Qj6dNn75s+owZ3fi4ishAVKCldI5j2DAtoKOqEPuH4yXpVEpeJ8QdpHp7BqaiZKnId8b9nkv3nGapMNm4ziINUy1eWOy5T8lj9qAvNoeZcOy7cSJhCA5LynfMVsMyvNQGaP5zpH4W3rQbxi9ignuhnFfVEGVRYCCSy3yS9sBjLtdtg2fiovRPY8BBXKpUA4s4F4AfC+0bxMGOho6G/gGzjf+mj5+nnIx7NY56rm8cnK0XKrrf3HZn5JiTnqPNCwqKS7LZ7Vv5UCHblPHf5TZNa8zUL7hQt9lbHCbBB7jVT1nNh4jL0PrQ6PFWFIlYc2erjZs41cr5AEYPrmmiFTDWlI8DfH3YaLU3DNhhOC+8G11hHNc69fGSYnYN6Fe9cc3y4R8+d5/f9R9jEcw1B+i/az37ltu33mDMdSTvByC995u4duLVvuXfJdf6BZQx+/4cFgmaZCK9aBLx9nuZD9BJ5dUAiV4v6Kd+6Od+70kiUVFcloJe/kCkfL36aNpw26apCCT9mcDDlacvEzkdB8GWDNt7cWovQBIL9Ssq/ZZC0K6grB7wC4hvnyLtw9DfQf8BSZ9VyvFV6HPQJdAJ5P0sJBc54QCssL/K8rHV6YlE4sWystK/Jg2D9cwX0WsdW1pWNpFy4y+55LLyXz7yUqqyNFacSiXZvIfxKV3RE3I9YgtOBlfHfmcLLl/YRpI3FHUrgqRFpHhGPOILME5UlOF4FvEwy8TV5mKJj9pv6MmFMcohvlIqq+C/Tiz74E4nCo74cCztGRnojuM4BWxPQccCgfph+U/oLGgONB0Sl/pX0KOQEPljHM7XOUHv0ZsPUsATcuns9fIKgZjtxFrQ0xmGGkau8qNlcFVa+ZOFv3McSD8FYBJ7nfcHeVbtaPVz2FVlsX6PllVaD2VKF4C3+NNyq6s4E0xTrggu6wVs0zS9lxaWetv5tDfcsppRo39ttSte7x1UljcVGEtxOyKerAOTN1XuYJmCOg5Qb/Aef42yd0KPkXcS+YLV8oNV+Y6O17ipgQHqu8bSMXU2iBvSr7iU1/0nDkOgpgrdk943twY3f0Ol66VUXumU9EsuYJBPKnFGk6BKzicSt43z13tZXBp5DyNfPU3gOvRivq5A53I4aRIXBWKboCBs4ERxmnTHQCsoF3BkXDrAcw+YeOlj1hElUnvncK176qMWX1ecAvEO5Ilz9eiLOooHhL5VVFRUw8cn9uDo70R0WgLL4fCRj3zEio+8cFEpymC21vEAENpYyaIDzhAyLXFOOisp2kNwUXABITY0+/i9ijJBQ+hxsuA2IiGzmnFm4sqxn9ubJy5LQyj9VkcTiIYx8ODA8uTV5/zEiYLLPMXtF9QX9YPj35J4TT7D7cDop4lv3K/A0Erqf5L/A6T9DBKgv/UweXKOFUM+oBq/E2Xg11h8iPM5ISza+rg11cksg43OGKhpwOFdsYDQgoYCopy27WirgTZTy/e8h5mD/LqHZ8y1PXCetexNRNyzbhwGxhvGuG8t6sOqhrK9kY/DzuUjFrMzST8JF8wOxuqhipcOHX6H/4wHw+UASu/8P0L6Mf4qcdtI+505nhH1Sg/8RUjz9ivU204apy7oh0ShAZoAbYXcnOH4rg0BGmvCqTMBWIltHeK136BreiBkCV58rSY60MrXt29pDbDuIYALxL5ghDcTx9vjBn8W5UdTdwAiQR6Sh4LSyDOVK4ki3DO0lbhnlJpPK+F0hq4JYovT5EdqcpNR938ZUv0ziJvIUWMwPB66pozyKV5blURKFzAp3nEDxMlvvV4+jVmQXxucc4iGFRh8HqYPQPApr1cFVvraMyJiTGIj5bwPf3hZQXHElmThgljxo33k1cpfJul0WQVwUFGMRJ2yvXOnH9Inu1gdlG5KZg0OkjhKma6JKs4qMGtwYKWnivkWq4XR0NonGlNHLvoYMYQvDx32+U+bnM6K48kkObDCJv6H9O0cqFHpeXLjwbmOri+k300ZcaxP56t145E/f+PD0KocPMFvtnoD/c87MOnrZQUiyRvGK0Y/ZZ2fkcgLAPlSujvdHbchPQvpq9KyV8PfvPvIqte0g70PvFrYcoVHNdhYeTZta8aXFvZsNXWWxYdWrL3NXuADs618XGNucaVfIB0XIvobN/hN59A7Lw79KmhcvtRe71o+7s0eAuBRG1XvZ6GqfOGg3k9z/SD0RZ7LCqVxDOaTLt+VQQMZBE1EBXEUAQANxbzxf4lX4mRCfFRBA9dCHcMgo3OC9D/5Xy3nv13gpEFUGgenK3mRqKMgPYiFxPO2OdEreAhcOmmJn1k3McTp6L67oDsggYsmnMBWYKX7qW2roSAE7XqeCHEEutciaBsUvAicvhaob/hBU78SlC+oR2z+wSbmIIwSH3ZBVIEz4+vPU88+++xNr9XM2ej3zxpVH5uKISiDEHLO7XJwWPooKlMTzimJ8M4yWBYxSCYPiEGAmfRVtABuimOICZrhnGmar/q1bvAUyAGgivt46PoP2+3f7bFPsEcwbzs2si20ka4M/1BJZ6V2/wYDzb/MnwdjO7KYO1dZSHqGjURszNe137gQr2c58nmq0XrndPSd8l36LD/3DD07uhyOJ4bX5T2kavNzHaIcnlixsc1ZJ33uV+/4KyatimGKQvwk8YIhFZKHS8s1bWdvZrE1T51p06bPsoYnH7AMomEvfsbi+IEv57wAr6ft5dV+NXqwMRilbvS79F5Z74bnXhtMNfC1HzUNVjDgyupCkE7ayL6rjjaoHNK7ecBAWc3Bkfdz+i7iFefi96lX9++HNI+D+wU6WM2lU6HXDfn2Hux57Fd2RFtc//dps9oTPMv9ygYRB7inyrj259OGmYWgTHB0gLXPTdXhALyCwTvQUXGBXC4bKwFDWXFxsbxOjuKcLwwMAZ/f6vyyjyVO3Jca1gjp4ZPFKbo5dee8f/6TJM2B9Es0G5oKIRMNK9GP57wM0sNPQBKxVlKPfFWJ0wleCNWhB7ET2gYpDL9g5NtC/h3EqZ4jOb+NOHFtHPZ/EVU4H9R+AVjwggRjE6Q7EJbCHV3W4I03Xn8fX4L+VE9PuoSPVNxx8803/0NVVeS3zc39A3L6d9SM4nM3t/bx7Tycx+DFL8SEEWBF4RxYUbQMrBkVYr6A4pzbRtBhhVA6ixNz7lbcdKWjiI5u6roJ/Npbz6ueQRkdhfv6+mDfnocdWF170D2Ceu5SsksHdRhH6TA/q45xflCwUnp+zBwXm78OxkeX7llzcJwox/3SqH9IjO8V1JA/m1vD5mjrxG+X7UAanzzLmSJs24DmoJPf04llWOuPdkpIIMpa4a561m9H8Cd/XSE/Z1NsfF2NNaEHk0V8mA3UfewcGKwba81sejb8xDewyhglbgcW9dbUjE/Z6tCzxbnsuew/nBQvKPgt7SidvmD4nVG76OdebVfcyLBPuvqi8si1bvyUVe+y6tE4c3A/2A4wONd7tVcYMe4j2xG8c1KraA6L24cNdfW6d1jnQQjuE1zrqDgOB3we+fSh56GLEUHt5dK1hToOmId41bvfOCleVeXT9konzb1fByo34vbOil0NDwZAaRoAVRzEB+c6BqQ05ePtGPrF4EZaFVK69BcCAbkaFnhoEogj0qDqYe0gbx9pHF4DBp3n4zTwz3O+jaNATopx1acO8kSzfPApLANUcU2bKafz4AEEAzmOqOmQ7rmOPALh4UHkPBhocVkLIAHjQuhZSH3Y78UhLgjqiwCTWXHwgEGoeyAzZ87+3Nq1q+eXlJQej2G/RN07mptRRJnXC5glbrrt3tJn13Ta6OqCkD5Br25qFcwJe/rmnwKAJR2NIEsc1V7W7EM5NAB6jVRAuYfeKPdBaDzl5dLPJjY/rwUCPNbjfeHgIX9DHO0RGLefQeto8+uC1cjqNNYjr3U+Yrw1mWqIktioHzVxB3o+r3JUmp6LKx9NDm4dBGyOP2xWuGbJIntw1QvW89wTtuw/vmmTJk20Hc0t9qXbbscnO68U46VN0F/8xIds6oRxNpAYtLufWmV3v7jeRk8dby04JiwGnJKN26wSruqK45dYG58Wu0flunvsY1Mn2cLqMiviqzptLJA/yejf2JtwUsb0UvNW0DgF2qehVfv1Xsnw2YEP5y6o/ZzofVVoI931ifMxnCtNYRT5pK7Q+6iPnQTvouqfSvw8SOlN0BPkETMg6aQKklty3Vf1qi2aH0FoIE7zUbpnefoNJBq4fK8jyKQjacFcUD2SMI6ERkNiANaTf3X+HsNtI96FfH61TwyJ7jOB86Mg3W8LcWrzXvON+JH31LnKHAZpXrdAT1FGu2HE0Gh89Y6KI90vCHQUeHLDQeciDYjIAcWI6yBele41sbmpvIo6Tos0TWx1Qvn1S6BB00PUr7Di1HB31DnxQjCihoCMcya188OufJM4P1HZAKv7SdvJuQtBHfmyAhu1vQ7SA9dL9xKkIP3V0Nlr/X2GCL0gGrgxkABrOBPnLlBu5INbTaQAa8NQ6t75yas2hFesWOF/5zvfCWPxrvFYctMNN3wGS/YPoQyfBjdUVVhUWNXa2r77vlWbSurKoxiF4toY5jCHuONwh7ZKgZ6TV2iJNhmqRbfi9FNwXwouXcmUkE5HUfrn/mv3DWpoVgYHMc24xMXn9+65833+aRwJeoH1MuoFVLhz6PC7/w/GjqPeh3+FPgJpvIcDaQ9x8Q/c/7k1a9bE+CJRdt7o+vZnVzxg3//5Td68uXP862+62Tt8/nybP2/ucLnLzzvbrvqnZVaON4tvfvHzNqahfjjtwxedbz+65Tb7zI9/ZhNnTnHj1tvZbedhQve3V5xlG3cssO5fUf/Zp9jhE0fOe3NiwZfGxCdoRp2yAAVe/p3kUjraB2inkpZAK9U/jho8PYAJ0POQgExjuB1aCj0IBXPlNs6Lof8NfSM/5lJdfBe6EAqAjVNrpf4rObZDT/OYn+b6eMrovb4Uuh5SvbwctgLSj+iHoFuhM6Dlai/H90IuqL35e+o+V0OfhAQSw4E8T3DxBfI9OiJ/AHL/l7QroE+SJuD+DjQciHuEi4soKyxwZUbUoXmj8mqjsMEF3ncxMFdxobn6CqS5tZA6+jjuFfTL6RMTDOZeib/LBfX1U06inQYkGHyhvu7jQCo413UQyE/0EGgpTtccFKcXQeC1BtKD2gWNDEEeZR6atbz4ZBANB9IEsMOB+jWYyAFuErn4fBtcHYrIt0H1Do8P5192mfP/uB6ZP+BEgjh3z2VYvF9y2WXfpsi3ERXr2apTP23a9O4fXbf8I7Fo9Et0M0tvw/zmop+SDRU6Kb2CwkK+3zC0F5CjgEpL+I6bGtJZDXdKo0V4jWGnMGIiQuUnE1te3Oi2v+D9cyjXAf+rBj0jcT4N+RwHBOV82hse8mMc/Io/SIEF+UIrOaruSugk6GRoFfnl2O9OzuEmPf3I8X2KEjcSF53/Qb7HGre16161BEajc2bOtPFjx9gPv7KMj8TGra6mxjZs2gzD1GNTJ01ik3SFfeLii+yxl9faL7btwqsDcxklfYwxVqgqL7Xll5xlo2uqrH1PrzV29Wivp02oqYiUFcT9+XVlf0nDtzK7v0a7NDE1djTPE0eiEPzYB+OmOLVVYKzn79rNUe+OfrRikIIkCAGWe0eoWyj7MDQLUngM0tjUQmdDd5PnTu7L3YcV60Q70V0N0jNTEHekewbvqrsf6QIJF6hH77yehxaK7uX8pHzSUxzXQqXQCdAx0AryXEGe6zmqr8E7rWem8DloEvQCpB/+8dBp0InQf0EfhDSHgnsKTB+BxM0p6J6a0zgu8wSuN0F3QRpPAaiOBw9ULPYmWPEJgObgBfZJoax+fYKHuE/q0OTXPZSgI1QHTYQmQCX7FchHkDbccM4LoHnQImgOpBfJ1bdvedKCF0bp06EzoLOhw4O8nA/nCeKCI2nDY8D50ZDrG0e1fbhNyj8yjo+TTuH6H59+8snv/ud/fv9z9913X5Xy3HPPPXEd9wqjFjxUP2OJXz1lcbpm6jF++VHn+eXzT/Wrpx79/9o7Dzi7i6rvn9u2981uNn1TSe+GEEJI6CCICkSRpqigNB/b4/NaHpamWBABlfKAIEoNRWkSaSsl1FDTSA9JNmV7L7e939/c+9/c3WxCgg0+cj733OnlP+XMmZkzM/H8MbPjeSNnxvNHzIjno+bJPPrAeB7mvBHT4zkjpsWzPBw5PZ7lcFo8e/gUYVf2qBmoU29LpHdK97f0SD/FQJ6dH1SVr0CiJiPlBfV9w6dE1a0lnFffEsIVrABnd3tIxF2E3c1yBDoQsJ0g99O++EVxvtHVayTzCF/KJOPnV1+jzunw0quuYZNQy0AJ+MO99yXdyuNHfOlr8eraOudw36OPx23ygvj0878bt6/+d/w3f6n0gjj1/lXvxe26O+J21W1xu/6++LR7n4w/v2mHpjQeHKz8CLDQ+uzqpMP8pJ36jGtHqKp7ZUpTpSEp7mWYN4GCI0HdNefaPKq4IGR8Y+JIjlEYDzBrmvck6ME7aLrbLPrJFEwnqoiQnrVT//DiPQW94LmU+Lw6/n3CyeXpMM9dKvZaytGpDg8OTNp7fe1+zwH1f3qFPSfpltp2HOHE/vqkm4S0P9crnJ4CvC/pLmUzKOLpAP1E0NWJV9BSvUYpSqrpkz7es0uE3MM//kQ9NSLs1T/UGq/uDcDJ+BXlbwY1IqiTjETdDRRGlrhPRDkBVBo7wGLwVOyHJuPtJiLYYeXm0WoYX8LfJ8FqUNzZEdh9D8xO+uluALg5SIZ3IxV6VYpGE2/kSh3VlC+XbjIP30YotBK/aQgfPp+Rnjll544dGzk/+JnjjjtO92IFztEOHTB1zpFTy/IzDgtLQjuUEfB1tTLullqkeAS7XEhjaX0lCaRB6nBWoO69ikrCXeFk57b13TlChiQnw4VMhE5PR1a1bij4SiKKRbsi8yLds9qBk7gJ5XOPA8megydcyLPj3lE/i43KvwE8gXJ6CTt1coeYtRaifD4ApiOoewWq1Td3aApJO0wM7MtXrLDvfvMbNnbWHBs162D7329fYZs2b5FXq2I964xvV/A+0hF24CkH25O33mBvvLPMuZXDhVmGbiWFF9VxHqlJeIJF+pNWVFl/xBuGs8A/PD1ob7R32tzn37F1tU075Y2i/4HnP6n2bi/d7Q536eXe7YdvU7tR2/PaTwN2mnG0dHV1zcL+ZBDmOfZV7B5XuSXLRuWnGcCxoDgRgeoR5+4BU+tZXt2qHFV34uBSweVP8eIuwnYYjmeCquPPYvc0dqn1oXOh38LtZlDwk4TSzWG5CiGMZB6vlBt6R5TQKsw6UG1nPKi+4hGvs2UGLsDunpQ0la9GUOUgTk0QZ06VWq4JW/5FmLxC1haqUFuM+hgV8F6JVjJRsYgiHorHKzy0u0BpACiOsOlDVGlrwVpQre4tcATuoxVK/nup4zDPBJ/FvwpqI/gsZrGxGkkGYUZJcD/SY08Jx85BocXaNdjp8YlXwV9gFrfzI/yrsES5exQOdoprFng7/s4CVYl9fhtuYnnlX5WsNYkzwEtmzJhxz5fOPvs0auxqdk4fQOL9KEm+Dxw40BH1zTtaT3KvN3PVTjyd+z9zSyzY1khuJ1o4r7/bwkfMAYEEiJemA3RcrVVJqDSelsVRG46q5BRZHLmheDZv9gmz8nkCJi8Yy8yLW1bR5+HqE9e37GLnyeIeIUEZEoug6ii6enhC0neP8tljDD0dvPi0XiG4ge9YRzlloHptTR3Ia+yXyRNun8Qu77H7706OsG7K7Vu3YYOcGa6CCON2odlpO2tqnFXVdrK7eZmVpwUhdC3YDbDqujrnlp3FWJqdoWt+6KLc3y4VaOcG16tWb6X2YlbAlTI7kVHdrKkm1yWLery1vfZGvHVR4gvIzxAXKIUQJc37qugbvTJUZ3bANdlHJrXPMx39E+n4MXtlI05N1zqpL16X9Ne7DXplJ2cvXsXRF3hhFyYdf0/cS0lDcajPu3Qxe/Fcjr3S1vdPknsynKtXzC/ILP/oRZRQXF1tTvrrl1SlHA4qnbfw8wf5Ra8AStN9J2aB1rcEPGaQ0PT+18cJlWHvg5wfzMqsMqfOvRuQKDXruCR9iFrQHiEl7nI8qcW4j1LGQXX4NuzUIiXEWSj/SXupWhOYAUr4cwdmjQauUjC/hr1a7TGyUzj0zg3zoazgiNAtwl5ESdyWVxm3Yj8K9CrPNSbFgZ0qQaPaSaAovlq+R9jR7gL8eQuYIsJXgTeTViX26Vo8lk8OPl/c2NBQxbN+d8FhZbKe1aE1LbL6WREhEvNzKx/v8pWZr34T8o3F5hs7n73QLIaLbKqZBxnSmYmE0mLxTPowhMmfkcOyVsh9qO5jkByWuz5F35mZxwMM2Re1Ln/mLe+uKeXj/UBlB6gMm/GrdQk2JgPHv1+4vtyJh2gSZY67R/T+lvSboBi7AqqdCVaCaznao3Y1Ehxm0+dzpVfAdZDG1nasaDz61uS4yPTR2bW0wJ0KxIlKyp1z7pL0F0jcw1jjcmbcJMQrqIawLSbOIpp4A4NCBs98pXNaYIcIGrW6sald+d1CgWSgloMCFVJCt3//qYFS9aOT0bycVL027MXulZWrDyxVNqmQGleqPtWP01MfHsGZmHT06qN333dp4n8T/t5M+lU/6g07kha90/Xy7PpS0o/3neqvAvWbRAUlzF4bEOMiUD/tHa9z8CLt0xEf+kgRCK+ju0DJP7mJU2pCVeK+pH0PRY1XFqgiPBo1xVU5rgZV6Xpp70SveEaAAs/+APTKpwpQoAJWeC/vq7AbCLpCxU2jthqZFg5FGDeCGrnFhruCQZW9OojWE4oxe/nxCvF57L6H+x9ApYOxJ0HHLhUuSBruTapRdrq6bryRa1sAOt3tJf1KijhT+BWZ//z4kqNhocbTiVgY9wV8vH4j6CgZY7H33rasweOsq3ymxUMQK25qUPdnAd3v13UyPCHv1zPymhJiHYfjiGZkxbsy88LRwgHBSGbuXZ2vPfJrswq/LsZzEe/7n1em9yWDnET5TCQdjYJ9tYHdYsafK6+kg8JAeR2I9RF49Zow7fpXXpOUh3Yy6siphpCnz5+8LQcp926AyxR4DY51nIQZP26HVaZUwiIOFaLkUk76dRzX1vcsiFnEzMebiD7ksdz7iLFYC7PD7cTitYdMlwB/KvNesKfv6eWtT6MXr6ZyewNvmrdb4nsL1NstWTeMgg40ML0feHXmhUn17+Up1W5Peu87E6POnnztYnz0nX2WqxpXnw7JOL1WsltjpeLUj/YW1kWR4qcgmZZXCL3dxWXJrR8Fq/UlFDeFHJC0b3ABdv9Tw1JjH5viJO6pH/ge8WhRsrui0Xudci3uJeB0UODZq1F6lak89wmKB38ijsV4OArcCi5LenYNfcyYMa584Jlf7GQag99T5V5V0/YlyA8Fz3APwfHxQoxfB3mzi6y1ap0FmmssfdTseGfeALgrHl4AHafFCzFcEYMdU8LMHItk5Vk4u9ii2cXRePGgEFPC5eED5p3l8lDh/vf3z6vvOwj4Digu8beKhG+VOMpu7UBuAtxUYZoeeAMKWsc5ayASDE0ou8o5afbqJp/CGiw7Ni6YGufP1VUyrGEl6kWCsgJ28rhvx2lJz6ke6XKEJ0mQHEeV8MWwS3WIyMl/MkxeZoYVcfX0zvo6d26TvJq/oBCpEuKPRLd8fuwoJaiBUFCfUPSZ3Yl2t5ekmxR9i9fZvMylOO+mrUnajEiqvcN4ZTMo6e7Vz24RvZ8F2VZ9aGD26qM8GcZLo0cU+FNdD0la7ujhmDD0zmsfXrqt3HcS5/t9p/q6QN/ZZ75U6HsjPMqUsM8pEfb7BGRU6WikjVZXV/c5faQwxUqKAmsK6hEKqaLOGnkdRcefV1Ce2sTqjsJp19EbCYZhVppeg0j9eE/vVYI4OIE3mqpVKqxgbw3Ei2cS/lSx74FeY3B541udGsrM3Niql4l9vlHf+8EP5u6obzsavggmKz0gYuUW0NsbLMTVMZ2sX3WxHpOTX+yz8ukWSc/jat9Ci0CYIhzOZX0KApZlEdZc4v40XpHJisVzCoKWltXly8o/mbutwja/ImicZSQ/+wUqW0Dresr3N5KBD8Hubumxd0RLfkBvoVZ6R8iS7jo1cEQyDgV7Xn+AI9ao6jQKozalclZ9C46lQEX8l19xw81By/JNtS1V4n5cXXSTCefVK3pnUL4SGug/EvIJffLfVQBS8EREypzTTNr34/Xri4ZDj1Yst6EEV8MpzsyKl/OQq9U0vF2cm3YgVmqzW8A1oKCdtDSjEGi2IIDCdW82MbI40MD7ftyEPL7qfCc2gsTpuzW9ZNmIjUywkmafSfrTx/X8+KTDPiguLtJ4NunXLYdg9urUq4+MpPthqKNAEevXk3YfSGGbyH0nac3j2wYnv1NSBUpT+fIGwhOTCYgW9PmdvefMvTOk+hYqsFfXvf3si1kZUsVGS0pKlBk1MteWpE8BETMugXLtR9ZqAAqnIyI9W6JcE9DJWpVYajUuj2BpyU7+1XD2BGp44sxE6IjeddbehdTbnBqX5zYcSw352rFxBE5xySPS7k6FY6jjWpmOoN+fV1PdcKnVduYFQukcleP6Kj0lT2dSCB96X3ahtXJ7QKx+uxUMOsA6CwZYl07WsG4VzoWY5ZTwGnI+hIrrjiFcls479qxtxQKhr3bd/5NV7uhNZYUrY+Vhf4G8a/onovUMYb+VDP857J4Ex2CvqbWOZHUvDiftcI5/Hv9qnFOT4aTcktRLrOScZDiFd5wYajv2Q/Hz46S/Gy//5oUHTsiCjm2vV168ck46S3HFmmJOarU+JcLUG0TtxHkxZdR9YR6cfeShbKc02MvvvGMbaeIbuOj+xc6YnTtqoNqRR7AfJo+6NihNecbeES8GSQK7dqy2qXYkOCih2AbsavvOe9JHQnkEpRoUp3+5rAgnaXaVjcpXs4PDsT5bboA69x4+3rnv7c/78D/gSf1iDnF/TwFIR3WaWh+FWP9Cbky378Btu75f5v0FwsHbBp4g3DpQ/fmnikPflkxT3ylp/ulYXyA3QH2+x3fi7tqBHPYF5LmPhrP3oEoEUMIqaBE8FZpXcGgTkOLPdfiu9C6vcDx1bx1QYeQuouiNDuLKlI7jylD7ArkprBqn0tmbX5x3A69AxRUI3PpLyrfYJZdc4hwQdejkKqquto6OzLdXbJhtg7ItrNC6p4rFc108F2e659ehZqaKsbxSa37vHcuZsMCyBozhleIOnozgtl75gziJofBJtMEf6PLlFKXFwp3XRx/48e12ChcG3rTQ6zwu7Q/yR52JUGgwuxpVg8FvQHWctzHfg/oouBrUAKPvnwmKWM0CBRoMxKlqR3A56ncx/hy8Ef1E1FvBraDKXiN5BTgYfP7K66//o82c92ZTNQxwQy17CYnm4hV24uMTYydxEUQtO+nqzEm7JGFy4RWHrFlQ98QaIhCvIZw13HLJt+zWvzxtb/JQVE5etv+QIUXxk0cPPArf4gAkKuAIidJJwv2on2OQ/BruK9E/BCr2g8EfgYI/JxTX8Vx94FcdU9Yug5i1A1iDBNXF9AxNuxWfBt1fgttAlY04jqtBD3r3HfdVOPbVN106uLk+RVqOs0V9j3REjG8Br0Q/GvVG8D1Q/WcueDE4mnJdRXv8PnqBl3ZvNeG669+lh9FLX4ReBEnxqO18IfmdP0G/EVRfPQK8DkwHFb+XBtpuUB/37QvB8hLuDvl+GjJEHvvkoBTUxSc/fcTj3NIszXNTy5S+O8we4pW7/CVa8i61rw/HWzconMpA2BfBcul2++5bI0IpUIEKNFVyo1XCSI1kZurmvujKd9eGX33+3bTySeXW0kX7ZexBBouFdepM61N+7WZR33BTvoYt1li7xUIZHPItGsSYWAN3gNwVi/AWBP2+sD89Kw3C9UL47ovPc2ndy/lFr+S8xD+4ymc4oiWBvxeJRgRHDevMJKLsBhq5rwfVMAVu/ZA6+4XiwvxT8EIhZo2waqAOEKF4mq19EcVvDJt7+NC2hnrKszrI82jOPS0tUcy8wkUlJ/pEenIty1PpktrGS/jnAkBBBtLxvFXvZNbEfZGOs9/R0m5vr9tox06faD/80hfccUSE4L12BPvrjpF9kjxWkVdxnN7WvQQ9xaWcAd4E3gAqUq8dPIf+KlDgtT+C+4oSVt3+NP3ToKDy7YfbpaBXthokEh+e4Ohuw3wFKM4nFQIYRNgE0qeCV7be8orcvDR/p2/CLEL55SSq/Xth0NqL7PScRP50xk9xu29Bn4ed3EVcBb1bXH7Cujv/Xpr3EpaG7Ajyp1GFqd+5A/Ml4JWgyiM1Xu0qKr+uo0rdG6QG3Js/ubmPInLXajw1JZDicvGluvEhXhqe6lW0VK8RiY108abEJ20XqHDym2iNu9TuSiQNR8yIw/OjcHLX4VDHHcmMv9Q0vPzgtEdQoQtcgyUuR7j0TR6HxSgV7OJZ+udeWZFtA/oHuWWd9yHUPRK8gb7ex3pUNJ1nuOhUARGp4mF8RdTa2LoPZBU5WdBYRBf3kb1QVjSalxviDvkdoZD/s47Sirva9W2JHP0d/8myVnGos75JVNpRnYuqUf9AcCioBi5uag34FCgRki2o4q7QJqbZSb2OuDyO07mo83Drj17l/nZXtOue9GD6nejzyw869NKN9Q1W4BbbC+2lV16xhsZGW7lqNc4Ba2Xzgnst0Bc44dBcblt4/Y03MHP+hTuuyKzTr3h3tb29bLmtXLOWXAaQdoDRCVM1Liz0nsHiuEWP22Uvv2ifPexQG1TWPx7MyPS1RWLtxZlpv6HOfkoea8irvt/VqYuYP8xnYv8K2i+A5aDalr5bnNXPcBehlp3XjhX+/8DBYBUo8Nq24rsM/3/DTlOiGaDWx9aD4mQvBtWBp4Hi6FL7gcpe3JHacQMo8Nr3u+gfAF+TpYB0SIY2lyCUN6FWYv01cAEoYqK2vAzUzSW3ocqvJ7rjChb7h7FWGq/KHXDfqLgTRrsPVcTnnaTZDd7EgxfHsS/B/nzwQHJSBFHchF5t539BpTEV3Aqqf3pQg+YWMFm7nnUvVYlgJUqqwm8jQa8wevjEnwpU/lRo8qNwUjUfF4VVgY4DRSUlTyUWUY29GKzGTGtyhTMFZTj4Dnbr8CP9HLAK8zOoPQB3xTcePBSUXvNtHRg9Df108D7ML8ofqmt06JXPEvBgUJ1vC3gV7l5Dwujyom8eCC4C1+OuOFM7oouT+M7A+nbwEfycgLkUvb67QZLtEhZ9/YUXhv3pycoXLr326UFDh2bHO6k7dgihxNQx0zwtvLN4bu1ZhdbO7l/uwPHo8+OZGem+zHT213nF2HhQgdTpfBkxX0a2v6QgD+LVeWj1Dw9/1l11rMX2vwMqkA0DXePrHQ3fpPpTwyMDCUiWo8pcBL+7cWEvO01/Uv2qPajhe3Ugszqlyskj+DZyxuxb1zW1fpGJb5iMhDKR+G9d9TbegLxyKxo1gDuwJAnit0I4rrplm+CeNjrnwvGTrT5Mk4MjK4Lzqtuyk26zjlY53HIOmWIl3KO1YVtd/JfnnOb75pmn2rbGFht+6wPWefcdHCt+1UYePDUy5IjjgpXDxjxgZ594kiLVt3h5dokk7LDq8W05WMtOFeSAcOKc+ixLecBd/l35SI+V/Ku/yE39QtNFEaP9Ai9eT91bYPz0+DbMqg+tLbZ74bBzxCrFjHOPb+9h9vx5au98pMaHPg1/4iJbiGSfykrxqnE5IAJ1UDVMZdprbCpMocy7RaoMYK8KE3chPypsFbziUtxaB1B4NUqFl738yix1JFiOH4URKi4xDMOwU8fPTJoLMB+JXul5ccsth0XBbEZD2beBLaBAFFn+2PJxrUlrMgPQHgOKCG0HZVaehGfjno+6CnwLFDETAbgLVDxeeaDtBs9uHTbyq2+9APVKcCv6QylHpWPrt21LW/L6hkIrK0AgVMWSiFLDRTyQbhGmeJ0IiXYiFGpZpVbMg6Ajygf6mPFRGH4bHxvCQ6odMAgITfr98QD3NbU2N37j7a9PeHbGja+Flp478+8iVlYRh1jRaCBa4G71zHeobtSZVM6qTxEklbcD7PVBQhE1R5QSLol/7FRWqgMXPunHdUjdwKp7wUomzzx5fbMjVo6HVGRt7PgNnvIJy8zOsrrOsNXCISEd7nIACbcBX/uy5fCiTnNttW3nkkQdXqaArA4urN+QUiscPxJq6rctHMcp0ZGcCE9TeAw0QqSdTC+HjhzKo9hdtq6x2bfuycXmL1/7lAqAwUZrL92EGCsH+hZAZaBvUTl4bU7lo8qV3W5l6H170t1rO6J00nuDusxq/0IvPsUlP0pPlM7VBXoHyXgVrnuQUJyAl8fdwiggfnrUB2ZHcAnn1aXi65FWMl7P3XFOiVzs+k/mx2sj3d+ZTDP1O1W2rnwJo3Jz8SX13XlOpul9yy6CRQBlRA6pILMwlYg5dyIWwVAnV2eJdlgHqzEZ9STQ3WCTmS/CXcTBy3wGehWOzKoMIcOhy/wBqAovtlTz9clJsyprPahOoo+TWWmPoQMrPhG/HaTtdaKNmBWvOD9V/Ikoh4MvgTfgTzs4p6M/CHwI83OY56D/MvhFUFzYHaCXZ7S7geIXKK9rwbHgcFD5GQMeDf4etDN/8sARmaG0rAH52dEOpEjjLLQjn+4W0bs4ZhOGUEXZ+UvLKub2gFIbO2KgDcyJ2RuP3mwtoVw67YHWv4hpYSgUziwqCkU6O2+5+/QJ14rALD13Rnd5K639hVPgAhct9EWvrY3nXVTsRnW1A+/bekRHOXU3YMpL7cIB9vLfZ5ikF8+fR/hc2IsuuihNxMpGjZ9Q197xB9iM7gJXwUtSbRtHaOJxdk/Rh0SQIFhxLt8LnXae1XB18vbnnzH/hGmwb3CsWp8Cg/iph9jVNSFkyz3wPM5K7sgeRE3rWILE4rvPtlIPmTt3xPPyi7g4LNKZuf7tv27BHc54j+XK9yp7zt0rB9mBewvTXXZKvzcQtkfZyL1XfH3G7YXrI77uPPZ288xeWO8bZI/dXutyH9z/ru8k/t2+E7vub1Hj9ECWvUGEQdBjBOcDtdAngqFpYi1qFGKF4oieCIRrkLiJSldjv1GOgOzFRQmkF4XV+aINqJpOKhJJwouAiUvSxytfIkhiHbeBm8GNoMJpurYVTAfd/B5VsB7cDg4jL+ejfhL8I/7vBEWs9N0TQU0DxVGpopaAIliPgao0jXLuO1JUtAnAL9E4llmcwl/AIaD863sFn9XfT396S25e0aDvZzDd6wrl+Tqyy6w1b4g1FI6whqLR1lY23jIHTLDywWPt4Alj7NCZI628lHcIX33K2iFsBXnZ1rhxlW1c+lK4esP60MYXnnjh7uOHfkVxJ8BVpmfYH9V3DpL4i5iyjr179fEPv7pt0/zFNZ8mgpi4Nord+/Y+49T3e9inh71YunATJ4auu+66zozyseXcq/Mki3jsPrgLH72TN2xIpIEhiBEFC7GKMtXjsTPrf9Rnrf/w0Vb0cqWllY/U1jsFTzMR98R5Qana0PBjpJYSxMqJPCT1ypvjtDhyyWOr8YYaBPl81tje/sqWF19ci6u+PUHZ5Hcv8EHLYE9RevFJ3ZOff7T9RylNcSseqIJEoFRZXmHJXUSnm+rRScVZZYNau3BsPXqF6YbUwsY/RnezYh0exGmJ0AkURtvG3pxZHV6wLqE4UQMvL8qHuBZ3lhBV9h4LzDyKgdLnexeVduiIiIThnsWotYhi8G7cX8FO2+yajg4Hxc3djtnd+ogerfvOn6KfAeobPYKpLWG5e+WCUw+4DtNZ4Jug8noip24OJUzQN+i68+yQyYOtvSli2VkIeGayIZhu/TLTrKwwx4oLcrhXOt0KC7KY+rCWxZRma12LdQ2bYznlIZas0qwwPzuSlZ0VinV1VPkHD/y0VZyOBEPccUaktf+gqR9w07nnhs/71d1nLl72wu+fCOXwXFHk/rTv3XQqU8x7XaQSQP07ZLr6zhhpz6/0W2VlV9rYSZN4AvavlHwZFceDggGtq6gm3NTOnQJgbyLC1C2fJ+iLWYdal5FrDcNoCssYZ5561AbMnsfrQuHIloYwYakeOKw4U0JfOnFIal1xURGoek47oNNQAlkZa4NR6gLSK3dZPpLMs/pBd5tP2n2sfAhKQJ3LgTqjAIOrUbRpSSd1cAfYidMRwVJHbnGWiT91AGq8J+FKcZdWHJOmh1rrGUl6WlR3u3OoIjpDweXYN6IKvBFOjUfc0hD8jcB9vRwFmA9FEQG8I2lWHrxwste3iFN6B6RNusV+5fUc8FXMD8oecAvKxKejJSJ2i7ATAVUZiOvLxd6VC3ql4fTYaU6O4tuI+gb2J4K63jnMVez51c1dlxz/7YPOGJidhqxoxM90ULKivFYVsizs0lH1voR2rppbOuPrt9b71jW1W9XWrTZ3aIENHz7UMnIzo3nFebo5NJqWkXX8lTN9NefAAd20sFtYkST3A07hbqyKCtWffe/KG78fiXRe0bkGOtvRHm5nLuXLzr8n4/T/OaDjj1de5ohVBURLZdrH2tZ+pCqvPg5jB21pRdgqkXOddshJCF/ewYwMKo0QlE5zq2QFIh4YfCy6hymzMp722g5T3LC+gXs0Z9ppJfmWVb/B1p/4WXvqz9oIs8BQrpzZyhRQYiG6dgdZEayTVebIFRLzLLSHiFOQLjEJ3iT05+TGfTl5QW0jRsIRF9lja9YEjh01ShXryskF+PjvQ1EC3QQrmRt1dm3tq8WoZsVFeQRAXtR55eaknfGn8FrvEVFR5eoiLhEyHWHwOrWnaqtXHJmwDP041HpUcTLatROx0mK1dky8NKVqurceXAEehHsZKi3XERQROu0MavvZtXKFRT8Q+7kgcstWzYecht1qzJraHgiuA28GRfQI0k2MvAa6BKdzwQtApZWLv++har1rpRcG1e2ioE7FTeV1NngZRaRyaX/81arzsvNzCzKy/PHiSMzfHuJECo4STQh3Ra2lpZPn87qsCWzrivhWNLTZqNyQnXDMVCsqLWGbPhpvaG73b9pcx0OpnZ+/+/Sxb5zzWjx008wPSKx0RfKiRQnOYdjMa+vray/MQOK+qXobz19wSDEY4thvo9+XU3Bp+skXzrfC4q93VlSo3Gy+CFelWeUzF0MRustLTnsDH+L+flu/PnEQW4exJxxUxImkKyFGX3X0JBDQ+qgGwt0Aqm8DuB5mW2OrZZb1t3t+8y2bNW2KFeflWtB/oru7/b0tW+zuBx70XfL/vmcDIFrVbTDsKmU39iajpGV08gyaQei279xpW7Zts00c+zGeuA/k5kYjmdlBXuFZbMtfX6sQx40erUGud9uQ1cfwby4BdfIeoE4oCxqR13mdO/ZqVCIucm/FXaIJ0qujegRGepx2313BXg2geysVvRbVvWmX1q1YfNjVSHDvj3EOqKFS61WrsBPBHAKKSDZhtwFV8Toil6KK05kNioPTdE15nwQqf+sItxG1O5z0vYG4hmLnvhVV4UQcGwm7DTcUx5F6HNkPcSvF7qI1a2rzRo0qenbd5vryUT97PX1eaUYGc1dL49n5dHYIfWls2muUx07n3jrau6yutdNWtHbQUUpszJhB1tTaZavWbbe3N20LN7Y1s4Jce7Hdc8Gl83nLsHLBggTBIcH9Ar2qnLy9IX/szEWNHZGTp48cFj1w2jT/gy+86NsOAU1Lz7BYWoaIV9SXlRv0p2dErHjQrzOHDPlVww9P25SSXsBmnOO33NVuMLKSkoRaXZ1oT3r5Jjc3zrRvV14nTMgJWsY5cFL/w+HlEoiV+B6hypYS5t4vkLLtTqaA8qppbuN64wH2yPVX2/ChqnpGRtasOllAz+LaGA9+f/e99sVTP2flhxxmm5ohRHJg/cvHlC9OPLr1Igu1uYV9mY3baUVlljV7tgWLS6Ntd9wUGFxY8OmNzz3z57feeit78uTJpxF6JfWpzZjUAdRL7mP131QCuxGsPeWDihORUAtRmGYqs8dC/J7C7at9ChEgakcMUgmWLu1za1S94+sjnIiauCOF3wpeT1iPoGJMECopSsdZ7Mefl56CeHrUxRh1ed8TSfszv/3zp373y6UNgZllWfHOQMCXxppVkPd+1GkyOScXxJyRA4Gg8+3c2WSD+udaCWIPy96tsqdXbIQv3BIORhpDoYatf2h/5oYzKxKiB8rvfue5+16soZMK09OCD/sCwYOjka5wKBAIfvqQub6Xly2zdTzQkMbUi3faGSIowmAoglxFMDCwnEPX+a3l7c33ZEY773pnxKyXrGJh6nKAPnlP4A+Nnzkl7otxTY2dybuCCYojTldcFdM9ESoRbwfSi3Bhhk22IZnptrFysb302lI7cAYHwSHwi197y+58+FGrhZOaOG6Cfeno+TZh6EAX/Ipf/NJ++N0rrfzQqba5tRURN3YUIVp8i1u0Z1bNSBe3/IxMi+QVWO3g4dHAiNGBwNqVq25dfMmUhcutKxqNIzRq5xGh2vdM8qLjSD3kkVxiH//9W0qg95Rwb5lwgxYe1GF6EIC9BdqTmzq75ybCIfTMe1IJo9FY/hTWhUkJ5+ywF6GSEJz8iSPSFDExiu8K9775TwlDNN3QnU+5J+MW5yZi/jcwka/ZVw6z/iWB/qFIdNO2ENQq3QJCrjRJT2enq6XDCnIzrRBOK78ox6ZOyuf59GZ7+G/v2oaq7ZbRuiUcCDeEom31T4pYKfWKikukvG8ZyVMPSHJW6SOmcjYs9ldKvZzbIcJcbBcK84zYky+9zFlF5JsgnDwLT8fmGpzQrsRiAAAzfklEQVQIzG4oPRjv6oiH17dFfKWDsguLis7etn372Vb96NbcUy58rb2j6fV49ZZ3QzGropO3ItgicY2MeGdrIRcK8uZ8fCrlMwtGapwTjlX8uqdYHJWIlUpKr1SrakS4BOKuQI4BWAlrTBvXVdkXL/qWTZ+sIkaM/MXX7eQLL2OfmRlbdo4tXrbGrgJXffcc5EUz2SZmeXXBbLauE8kojI7r6OXoOKiHWDuC7lVnl46P74vzfH3goHm/XfjLhEwQxGqwwgHiyrXmKlBuP4YPQQnsE8Gic6rChOownvp3ZT+F0OxPPB7B2FvHLSZC77vcWoQSEHHZU0LJ7+vt3J3GHvIqIqg4Nf18Gz9uSls257xPpKdXXxptbWRXAilP+mcYKfYIx25COYWcbcuyeqzr2zqttrnDN6SjK97ARHnJuzss2NVu+dHGSFukIxRvb17d2dVygsuUFsoXJRbKnXnf/nw2f36AaVk4OHLyYdTgQ9AongnljArTewoS8Wq/7YRTCdFLob58DeIBvLIsrk93qftDab6uSCQ0oH4HF576ozt3bvP7o+FB7WnpgzKCgRO7OjqZmnGpoLgyhWcDwU3riE+NxBEgEaoYz1pzTQyuzImxl9+Ej4Qft0hOccMJOYJFmEwIi23eZlMmjGdmF7IW3hq8+v4/MzGP2iiuNK5lSlicGbS1G961z1x9U3xlHqc8GBQGHnGsbduJnNb2LRbfURW3zg6XFf3pmUdxblAuLkFsj/HdQV/1jvVNI8bfgrMHF/D9tcj3vUadVsoSddfU1vP1sfpvKQGvY79f4q7S38/Th8Rd3I5ABGef8r0HguQi2dNfSiPWWtkl8qeXcc69+O7fxTVYcxdvrj8tIMIQDrciKcvTXdyw0KjODSHoaA1Za1aOraiu86XRgfoz2d7Z0RgNd7YFA2117Va/7QR75Z4O1opCtuim/Zt+OwK3KKY1pKxxB385Em67mfxSIrGI34d8JHkRQdKDFhmQEXTocYbQiGAEuEoCIk7hKUwXDymX+LraGoNdrU2cG+GZltaGGM+TIWqQpZOxgbZ2lgr1enJHm8U7WiWOD+VT0YtGwULF2Jxh9y5xPz1EiakdEbvpn5sSqvCc/6QqjgsZLBs41E3r5Ky72He8t4FVRc4FcmawHkJb3xK3UtaxVr651Bco7W9lJaVWlZnNDiD3hBVy1TRUOMatD/G2NuvHGmIOeeZpbeJGpisUiLcW9bPaOCcTTuDtyIpngvGL50tUZjPJna009wTJAU5soT5SoLamwTTqTL3+8K/BTX693Wj1u9SwnohOr5C7jMThpbdP4ZJpeukqIuWxT+n0Xal8+HX7SrB6f4lXaL3tPwxmr5JUQVpzE0jfJ1CxWvPKA8WNCfVtQvUqudFz3F1XMjtQY6Bxaqo5BovJ3ABQgX7N//vfn4/YvLZ+4ugDcqJtvF0TR+QrxllBOlk8q6PWF+/gRWd27yNwWR1wXF2dDSzEp3OWOc+qOujkXW2BQBfXH8eip3S+cs9qR6yW7iexStkJzJt8xOWRWOcPDK4JdgmKESMzoiUqogRRQi4j8VH6F1GBcESQuAzQ9XhHy/kr4mjM9lqkUmLstCH+xq1r/nYoXAGEIchdXaG2Fi6+JwzcFvRMkSeFP1P6r0pUMlJKThwYhAe/JIKFiIjyJFVcFtO7zszsuI0Y6FtdC6nHS15ujl16+kL7Ao+nbpx1qI3Oz7FmjuvsaG62Arix6PattrWlydKQ1WLjwIlERCB6ORCuYqbi6zduth3vvEziDqJ21OcDXIXx1mvfOOO2mf91JnPuBVFfxZ7biReQevbWs3bjuuSGP0eUPP9S1VY8M34w7s6xYe/alOfPU2WfiGKPxNDLjxdEg423udWdrueY4uZZfaTUD0Kw1PRUiCmt8UP1zd40kO4Qk5jFnhqCGo66j1ZsDwaHgSJA+i41PO1g1oJLwT+CrcTlhdH3qzEcy/Shhscalr+29M0jbrr72WlDBgZi4baOgF+dnw4TT6NzQoRCWq8BdAe7tfo52ZsXb+Muds28OmLIPMAZWFgcSuPXuhb/6tEPRKzEjVU6AhdMn3X8XTzYcHKsoZYORHYDPCntpl5eG1Y16vN3gUoDYgRRVSdjNgVnMmrQQMuEM1m5bTuilJy/03dA1NqZWUbz8nhBiyN3OXnWhohAJ2tfekMCUoiflHiTWhFDR6R47EEA0VI5JogWXI+7+hiu05+VbTUweENYu/rNqs325RUrbdqEcbbwxOOt+KmnreLa39qLf76Pg1cjbcT44dzg0Gk7WH8LkidxYj5EIcKUcwkEdSdq4+ptdsRBU+xTF3zFBpYhFUM29CT9llD+z1lVD7NACHd1sbgcdfYccjQc1E74emXPA9y6iQP6Q7HX4po4egrHXsD/OlTF0aPNYR6GtXbFV+NHbxaqvc0C9f0rwb9g79ZapWJ2gL/U9MqxPAgcDDIyuKe/nsW/zgSiJNaA0Stt2ek7FoCjQLXnDWAlbjrpQQmoGhNhpP+ogMv4vmSWj8zFnz5c6MQa9iXc/vpRYaoggd12CT23vuLEzTUSVBGdU0FNemgR/t94lbS3Cooj34R8+08INw1UQ9oCfoMwktDvhtQ88JDBUxCri/HzPKJlVf1GTx2QlcaSMwtX7MTBSXHahBdxHGEQJ+E4G63zUIR0jgiPTESYoXXkFEcjxUOC8aZtF0cevuJSdxHfooX7NSDM4L3DpTfdFM488NjBkUDmI7xtMcVfv7WL43EhngXjSWlun+lkS18L6oDWqVy+nKnXH60iCH1r5zXkww86yIYNK7fahno4wo5YW3ubP8zr1J0iDiJucE2avm3fWWU7GxrcAWRHsFKipMycyU0xvRYnu+TundaexFWxfWp+rijWWfZYyQArLC2zHauX2yiE4B/98Y9szKgRLp4muKqXXn7Fbr/3frvj/64n3ABuehhr6zu4uAciFaXcS+GqdnAOkaMC9ui3zrP5Bx1oWdgByoyXiyrK4SrqUA+HOq4E9XjcHwbfoF6no4oAyb/alyjtHPS/BtVOUkH19Vvwm0l/akNqzASJV6I/FPwy6R3M+tjZ6FPhRQwn4NcdG0MV8XLEClUL/z8DzwKh6j1gDabv4P8h/Ck9ESGFPR3tleAg2XVD4rW/S/BzLX5cGaBXeXxkwH3kPuZWFeJVNHz7hw68gt9GztrE/0CsxCWNTObUy/tuGafygr6EMOZTONLKHTxJZXKbiROOTVpx18yiRa7MeGJqMg1d+jeGjDt26bQ580SsYGognKwNRXXnOjeIWpjBUESCV24SKjtW4qS62izYUhtPb62JZHB7crRpx7WOWOnYzKKF3aNsd8J70KjhzYdDELHKPejEOeFA9tuckp7ib9oR5phPWiy32BfX+pIIlDgsqlBsXTexEtcjVNUm9SIsknUyxAoGl5VyM0QTQq5N8VamfjzNDHZwjriLxyLakNjPtgzENXJ1UR5LVh5IR94Q8GQnFELE4W+tKXnOibQ0BcTeESsOKItYxSBWHUzjgmWDrLpqExLAUVtbW28HnHCqPfDnh6yJp+jzmPYddcThdst1V9sLL75kCz93nK3jEPRQZNxi5K+AfO3Yvt3SOtpt5dVX2HHcdyVitW7DxviTz73ge27Zu81khEHGBsJ9/i/5JBOOY1b+vEym9g2PeMzFXeFErMR93wABqkAVgdNAfiEI66fPc5ySF5fXX36eJFZ34eVH4J2gRhBxTleBAlE4L73BmDWP/TIoYqW4LwGvBpeBo0GlKRDBFbE6D/0fQBGrd8FfgJdDpl/my0T8rsFPRZJQpX4jTh9+6E2x95ZjtXZapRuh0rxC3VuAvtwI54Qt+3Lbkx0PZ3oVvycvaiBE7bgz3ZC4EWo1Bc/K8wzwlWQD2lN4j9g14UF6pQc74sBzcwbuaXd54drjo7F4iXh/Onn2SdO31daHg/4Agj8sabOw7sY7XsJx0bkYktFKgWCIC2FdPuoPchFfS83vY09e8w2XQIX775Gms+njj7x4U4bI2MMWnrq6PXIneTB/w7Yw1yeH4hn5dEME03lGzD0l5jgdokbVR1BO9DLJbsLtOTdZ0vKhw21tHTZRR4Po6H969q/WWLUDcYJMiSTsIkykdSBiAen4z8/Lt0y4sA6mZAHHSeoTII78Z8HlZHKHZ5TF9haISDvETjeHQqziJOATwQrwzBaXY1lGvzIbMXq8bVz1lgUbG1jba+NoQ9jXDHN00qdPtHnHfcrOP/ssmzd3rpX1L7U5sw+0aVOn2LzZs+yCr51rw+bM1yKS1b++xJ5a8qKNHT3KvcJzw+132jcvvSZqp58etPLxl9iksVfBHX4dAqIOrzYpwiFQlgXdgwZummKpr9wIquieA7+A/RZUB7gvRPNH8NPov44brJ8jYopH7VAggqFbTB9zJv7w+yLKdai6874Yt+4pG/YiaKNATRtPxe0t1G7A/7UY5K461I2oB6D9lczAzeD5snemxMPBl6IXobwYv5qGvozqtaGktw+3ss8UNvnh4rIEqjTN3VXg0u8VPD+oxXgcIM+yS8W9RQBx8BqR8+aF6yOMl5fncVMjga2xkfgX0VKaIXBv35zCeiiEAx1VErpwlIPX+Cb/7tY/zmMqeH5XVzuFEA9FmbrEhFoGE5Fwu2HEIY6GL9C1Xzrr5pa7ud8EmhKMdbX+vvalO76YSAruyiqUh/eF+Syuw+25+rj48t9eNm/6tDtjHRHLbK2Osk4WinHNsjg6H69JCxPrV6QMkeGlaV7f0VpRrnWkZVo76+R+JywKowGx1Skd4zjMiCFD4axarHH7TssfWMq9gdkIl2Yyg0tn9kb1Q4ham+otG6KWn5NjZfm8Rg3BEiOlCpMaZsqoy1UzmfZlEi5b0unkwcc6lWVz9wJrdyERKwhYHGI15ROHcofGZuvasoFDUbW+0LYt7A5ucjt9I6fPsmdffsM+d/JJNuDw4+yW399udfX1lgl3dv6559jPr7nONi2ptM3b6+xb/3upHXzQbFeOv7v7PvvmuV8Oj/32fwWPmH/4Yvv68Y6bgUMWUTldWXUee/65tqS6T1p/FnU8SMbsCNrBlqS9UzDfi+a/knZfV3vBTu1P4NXp/dg99tprr6kdUtgObue/Bnv1jZGyQY9z/FS0h4AaRD+L3VvYKVzqK0UX4VaBnRfXuZjFzbEk4Psq6BErrFy8/4tym/TA1xLKR+u/r4ra2xekch08R+xuP1Db3CPgh3JzFaBCLQV3yrPsUlH+ZJ8CqeZuvRdfMs5ue4XDTiyxGso2jE+C9FpHuD6FfT/s3esg2Il4pX679w1efFIdYSIMA7+7JkdxqzEobPnTTz/3iS+ffdWckZOnxRs5SiPGw60GiLsQV6MdM+xEoGIsVMf0aISIFa8OgFHO+vKGZ/jGncuf+KLipN0RcN+I1QwW1ysRWaioqMj41vd+8qf0rJwf9i8pjY/O9scaw9FAEEKkqaivvcmQn2AhhU279EyLQSRiTA/jEA8fhKkThrB/boFNHj7COrnNzMcDF3EWvdu5o8sGDrKBA4ewLtXsJN/1aEMYwqs1K77OTXn1iEYNBCOdRfk8CNYALh7s5k/4Ik0t9QiEHi3NgqhkIAxaSHpZEKY4IgU+0kqHWLUTZ/qQ4Tb34KOsZfUyW/23hy2dBf9IXY1FW5p9OXBw6vmbuYe9aFB/Gz3nUFfGX/niWXb8F86yzVsStOOMzy+0AXMWcPjqLTvq0Hkqftu4eYudf89D0WFX3RwqPmDKznGjpp+Btd2bGITEXbwOiisPyr4P8NrGkUm3F1GH4X8OODOJB6KKo98EUvHuteuxqL1hiSxmzJihtuoREy3Cw7460PEvD05Oam7Fr46luWfr0evspQ7osz/i+pZmD15cfLyDl3AbA6bmUedwx+H6etLPbMziLNUgVVQfCUjttO+bYRUWnnQ+z/vAPD6Wra54DqgdOVp6TyAM1u7aV40e2zEjXuw4ljLU4WA52Ps2BEUi4uCl441yamB4d+mx/uD0nh+FcUQrqYrLWgyqMiW28GXCHQVOQu8RN41WittrrOJYVCZS9T1Hgt8BzwcnkJ4bMX9z/e9OOe+7vzzABhbHdFyEXury4BabxT1oZigiARVLXKbqtXk30sLkpJFu9Nc7VzyVHOX2mVj5aOyhpU7UYcTQWx9e8mp6Zs6JSIaHdWfUrPGjSTRkGegdlyNuKa/I0vJ5kB1OJq58qUiZ/uWxqG5VtTZ/8gQbPXQw43irZUAY8kJcYxeJxqcPH8ZMLcve3VnDvtQQC4sD0xqY1qKwj7KArxtctnOkR0QpLyfb+hUXuStguigTiY6qPJhy2U4WyUOkl8NuYv8hw2zcAQdwy2rIcomntbPdhs6YawfNOsyqX3zalt37a7i3fBjUFivkI4blZlszxKsIjk5cXB15WMetDLkQv5lHHGMvPv6w/d9tt1MHjIalpXbGUYc5/eBBA526ftuOuC04JjBu0iwrC9uZ1432Vc+Aw1mYGITUWffaB6hzjzsa5SJM3OO+Gv0L4KtJfAn1TfARkIJybUjtvTdQmA66GwQmiUG4wRG9ywt5Utsf7Xwm1sykVZvsBuULxGuC0KJquklFOric/3fB1DyKWK4ANY0UjAXFQAioyY8GeB11n3NLIenWBRU4w7gjKoWoKkxxX7rVQMShGn9qDOKq5K6RQ5fv6X03cT2qTBG+OjATnIi9wqwFvQaiFqcKVFqaRi7HTWsJIorHg++BVaAKO7UB0B8dl6V4KsHpoPIxHNQIozhUcRKmFLst8BrDXPSKT3n7PFgJLoGrUF60k3T/qCknvnfBj/7wkyH9s2x4MVcbhyPaEoQSJbMtDktb+/4ughCZnpvXgjvrVaTHw6msb0W6rtyx4sn/5zzsI2cFN+UaM2q4YNy8eWnBwIObalqK3ly3sWve7P5pYd7XGznyADumPWqPv/S6FfbL4yhQjtWwZmRtzZbFVC7GlxEOYuaz2k077LB5MyEyxXZH5bM8elEQZ47qa0Ki3FbV2AHzD7Hmji57b0ejlZTmWx3hdPe8sesZ58VkcZG6krgT/y0tzTZk4EDiDtlw1pVqEUNIz89jqhljPSyoA3rW0BmxKaxNBVnrCrOGVVNXaxsQfJ9w7KettLDElt/3O9v5t/std/IhLr4SBDurX1nJ7ZC8FjR2qhVwDcyGhnoKUKQQBpImuHJntdmICVa59E0ONbdYLgStsJDmNnqupXN/liDebxDCB2kWevWFH97/g68vdldKz+xxpXSPtuMC9f3HxzsQhyWCJXNqWOlVR0K5bQU9UJYFbsBLaHv8e+6epQZSXdEsszi2vYGXB7VxETq1/8cJS+E4s+funPhT/uSXSnzfuPHy4YL9JljKPoWhBT4VhDq6UBUkQiU7tRTdeSW9CkYFviEZRsRGREPXGb+H6gCvIlxzUVVDtaBGF83pFVYFLG7nMNROcBio0USNZjdQHICmb4rra6Aox0/BaaDWsmjB7iaHIvw8j155Ut4/ASpvDWAJeB/xXIPqAL8vvf3Oiqe6IvERQ8uytfsV64wws5NgKJ/tY9qnO+g4/sJSK1yIpoCsWRmvNtPDIr5IZxCBUHX4CyFWvyaQ8ge+/zQQIhUE3ShcPPnwiyj8azpIt6g0O/KX2q603A1VNr28zEmFz542FQmGgD36xnKaZL2N5G7zsWNH2aPLtG7LOToW042dtOOOPsQOGD7CKl97DWISjgcyMuK80OM7eupEX9lRZTZ82DCuvemwEeMQF9i8gV3AoLVBBHx1jXwDWYGTjEiiEw5o7ebNLG6PsTyufZk0bpy9tmkzvSHA8lSu7iGCY8qx9RC7coj1KDiltqYOO/7Y462zZKhtZX2s6q7rbGAHBGfWkbZuW5X1g7hWv/yyfencL9k3LzgPzizXFp59jq+rsYkbbwqtg3Tb4boOGDzY3g20QMxy3PEdPtCaxDB97jOsianpWXRQJluY115948OP33oFFeJbuoubUcfW8oE3QMr/3sDjju4izHV78+i59RG/+sRugD/1qW579O3YbcfiAHBU0mGXh6RFMn71P4EIkAbgfMJfAr4ky30B/O5rGexLdP9UPyIG+w0UlHqpqLmueBElV2WqsBjO3dPWclPlrMd9CygCpwIvBzXKbAbVYMTTqtEo3HpQFSSC9zb4DPgU+FfwcVDhFafCSt2tArETePYL0Cu+x4i/Hnwa/S/Ay0ERjGHgp0ERPxGtJaAIlBrANvBW0JYsWaL82NBPnDN7yoJLRtRHM+kcHMnjBF6QTuiu4oVIBdBrk1DTQRgp9Jj9EC7zd8Uzi4PxtNy2WEbu0dvfeuTX3BEVUJzA+zYUCJVfxKqCoyPf/O5P/lBWWHBNMyXoT8+MthWVBbNHTrV7q1rt1a1NTG7TeMCinx128Fw7/8RP2jHz59nnjz0W+SWKgbvhxyCicMzMKXY+HXoMxOqppa/bG+z+BbOyfOlp6f6LTvikTZ8604aPHGPFyED1I67T5s22I8eNtmauwUGai7UwFRXAehbzT2ocaX51OKZ+2vkr7T/QTl7A2MJUtD2Xg8WJ9ap43oAh9vR7VbaGIWfSMSdZefkoC6152+JP3wOhhUMtKLXRcGkHjR5tuRIiHTbaVz5ipE2aONGGlw+zs075DDW/1oYX5jMVjduMkSNt+viJCJUssVM+eYx7f7CxucXeziyybx08xxqiftVjYERhdqTtlsuvUJZZ68pItjltooiD0cCmwVV17HV8ee0G3Ly60vRPcKr+ZA8qPi2EZyTtFNePQa1nOaukuq+K2rUHzyY1p0klr1q3crvzqEpb60/Kv2Y1+hYRLPUbwZn6w17rzAqjPLqKQx0FKo9lST9ef5HxQw8fOLN8sIYwLQDu1ulwG4Kb3Dfi7hoCdpoWjgG1jvUeZpTEGlRS1RTzkKT766g9IMW/RpxPgs8R7nXsu0fJFD9qgN8ExZX8Cn8imD22bzFfipvm8BfJHVUVrIZ2PXgPdtc8w/1TC7h/auRB3ziXedQNOnWHeDbC1J3+gN4IdLuCfD6dFwNTP7iXUJaksFiV7ooz/Qt39TsgrT0Q2pDWsumTtc/evHJ/JNiTxCp22WXXDedGhbszMrNnba/eGVmzdVvgifdqfTb2YCuecpAFW+ttB+s645lIzC9NtwP6F/jyOBjcibxUmEPCrUzZunRbAfnvQN3EjRB3vr2MpaeYr4hduzqmft85irf5+pdZA2f0suBYNN1rYkE93NaEgE/c/rrkJXtp43uWCy1pa23i5k7kpYj7OC7UGzf6ADYMuSqH7hZEcFNiBa3EuXZHtT26vQY3jtqwBjZj2oGW3X+Qjdix3jI3vWN1EJgiCJwaoSTldbGhZMSauQmUhzbs4b88a2//7QGbNGGC1SOUetF3vmd/vOUmGzb/WBvM2cFmnvX63LxZdtFXz7Ycjg+9U91sf1pbZUMz06LIiQU+P3k4nCFTcAYtGonaTA+gvguxUH1/l/r2BtHjMT8M6kqjafhBce10LHZaSlB2f4Ddj1F7AH5/isV/g1XgAfgREVG7qkQ5FJRowt2YnZAqZrmJaXgDnAweg/tiVNkPR1kJpoM/xf5/UHsAfjQrOB/8Ku4iaF9Afweqlh9OBB9NDYC98v4YeAyoncQTsOvuP6l+P6x6mt8HAz7WdfLU0CoQQKMEPdetcYkIaYolyAfl1iqDB0n/MorLUgWXEk829u4ojBxS/MjocW/S9wZViNIYCWpK+RphHXeH6hFOr7Gsw30mCDvgODgUtzYWQCh0jQwiVv0Pu+ZyuvwPQl2clouFYwhU+i2YY5E0PoebfX3RdnYAYRuYEvqh4bEAA1+MnpSWEwgXDE1rT8t9pDl37Gn22I+a9odYkbwPgqXBwP/cO+8+uODguVPa2ppbX9+0PWttO0vsYw6xuXMPtcIBpbaxptBK2Ylb3drhW1G7w76dTb4aWiWZbpOGllo7fWLVzi1WzS7bSw2NnMFD1GDYBN9ACFgVU6sz5oy2SZMn2qs7mu3BaLYN8fezOm47iK5eZ+lN1XbyrMl2MFPNl97bQiUhu5WTj6gCjAdPwrLNZ02c6du6dYfNmKibFdLsz6++bm1wmjGJRzAdzBs5lrurpli0ocYa77vB+o8dCfdVwPUw79popphFWRmSeuR2mza3aF/EAv7Ste+yOLDafnntb+w3V1/FnfcF9ttfXWVnnX6avbNyFQQqx2ZMnWyTx491xHVnTa397E9/s41Vm7u6CvLTXumKP/GpsUOug2A9SKM4jjalKdLPwFWg2r3q/mJwKHgB6IHaj8BNwdX2ALUZ7dSJU/sheAV6Db63gDtBDXwiHJ8DBZfgvwU/3iDp2h72XtzOU8qfS8tzJ5x2BDeg/hd2IqjfQz86qd+CmgMuAPU9WtsVsULx3Yl6Gqq+935Q7g+B6lfK7/fBA0H13Z+AAvWZjwx8YIL1Pl9IS3aVk4WqhXax1dKr4kTMdgMKWYvhIlrixETcHGHD3qtkjxh55t3iSLFQI9TIVZO088LK6IXfgV4EQQ3hcdJW/oZzt1Nbenr6MvQ29lM3/rkhnPEp+mMsEor5QpE2pNi5flzrVRApSWUr4gBcQTSYyYHmgnhXMD3CxQAhjgjDVWR9p/Whb12luGx+RdAqK1Qu+wpiN5AM8MX+eu+vT5k3d8Htg8dMn92wPTNWk1saO276+EBxcY5t2biJm2givhykxIex9tPgG2C3suNXx5sXny7tZ3NLymxntM7ubK+H54Xx7F9sOUzfInBQVawp9YebOmL2qDiv8/i2ZSFeQA4bG2tsNYQsLbcIYc40a6R5Dxkw0I6eOM4Wv/42kubZnM3iIwtz7Qk4qPBmipK0ZyEukQan1cG0caXWyvL62ayDZ1u/Qq6DYer28uXfsdPPu8AKBw2zdW+/ZQ3bd9ir9SxZsovoXrtZs9FmHznX5syabaOHj7RNXGd8203XWwEL+D/47+9av37FdgTTXGEqbK6ut/O/9Z34w3+8LWKfOCjNRo5/6trL/ueEsrzsTs48HpkRDN6Mf3XU+1PDJfWVqCIuHqchjkagpQIP1E40cP4If2loxUWdlUSUblD7vRB/t+BPTcOFoyIL3bGkBLckz3JLBS8txS1wu5fEcwPxqM1cDX42iSg9oDJpUh8T4TsFvIOwn0b9URJRkhBns8pnZ+C+hLg9guq5fujVfxbBEmESYWCIdaB0hLIX9uaaZCUQ5RehyZZhf4FKcA2EcGoA0tMT9ghNuKgxlMlHe3t7UUZGRj8uB92+6KGlk2z6rx/uCOROjoShBsHMANyCLxZg0ZlpYFq40fydO92XdKblsRPI24KBjEjYFwpE8waG2iMdq5B/Oqv9oe+8QtQ+45VS0BtFldy+AcQaLktrWGt+eNFJB1334PJfjZw2+xsjSwstrWV7+M177wq+88yTPhs8zDJLh1hGfj9rze1nOTqXRzGmwVRKjCEokYT8Yiti4TyUnenWe7KgqpsgWJ8szraSojxfLWtUG5h26WGGTeuWWx7CptmsJW3LL7QGvnsMIgmjWVNavJb2zm2p7h6+YJC1u6CFczjCw9QrDTGFdBbV/bmMN+zeHTpmvAUa6+zNO39rVcvfsIKjjreBEL4Opn9bt29zXGkh/Zr3bixAbTUOH2A1PEvPaxBW2q+fWxMbPGWm/ernP7WHnn/RLv/mRTZl0kQIWD5uiUX/l2vb7bQ7H4x1/vE2G3XMiSEeovhj+923nHHR3bdw3c+adA5uP0PHnEiBnAHhOA7CUY4era2laB5Er2fZNViqwws0WGmQWSuDQO0KdxQnOyhuR4RPBGs6KG6nGnwO/B1+NuHuET+s1ADcIv0ktN5Sh+sDzjHRT36GfgQo7k8gkQWlqXhuibfG/8JwfybmwzCrvTIauHxqA+AJBUDVN8h/G8bPoP8U6kJQU1n1w83g42TmNvykcn9Yf3Tgn0WwRCxEsLxGICIklL2wB1C4lKHjpLyK9EaaHv72w6Aeq3REAPcEzOMc8RRxDGRmsuhDmMqXN5X/4pHNf5owvizY2doUZhOdylb75goTpoKBcBPDWIiHT4cYL8xwgDkr1tDRGg2GEJ9EOBOp7l8NnbTge8srJnTZjBu5R/3ciCWmdnvKx17tIVax+ewSVkLwLvzMhP9a+Nedf9285NGbX3zwngHW0BjLHDo4FuFams4N71i7LtPj/qoo8lR6fqNmwjjbGJ9tVTVwVy/hnpkWi2akM3+IIlAW42ZONg3GlduGnUNs/ZYqe/2JvyGLRbX1G2BdTNnSIVIWyLBmP7elItXer7jU0tgJbNGWAy0fNgBCg3+mo2EIVQhJ9gx29EqmzrE5CJM2vfy0vfH4fRYYMJSJ12gbmR1yYhVar6qtr6PbtVp7Jw9ySDoero8/ZLZaWHvr4kU0xEaQq3ptxSobcdA8W883fGHhyZQVeWI8+2rFN232vPn2Qm1ruPPe20MjZh1ka7dtv9TeevliV6BsbBx33GiJ4Gg6J87npiQ659S/ZPsTV6N2uBq376S6S6/2KXe0IgoaiIS7AX6UXo/BCfOtnsdkGt19QPHidn1f7riJaCm+KtyvTKLndTc16V/9TB/yEKpwN+grj7t5+pBa/LMIlio2le1N1auC9gSeW6r/Pfnt014NAgdVmqC7YSSMPf6RjNINJ8xtIFxPPfVmyVsbWuY+sdVfMqK8xKprmiPNmYFQFgvLXVwhzPSMReYIclcUWaAfx1Ey48z9IhldkVB2VpG/Mdz6djAz8/zq2xc+D59iiSngueLg/m4QsdJ3XVJZGahYUPoYEU4IHXnOtaFBQ08Pc3kerTPCMZsAcle8yCPJeug0XGCUG0w7dWC5iZnxpuXijHzN7a0+FtstU9fZMN3zDcpFzCDPWnmjjxcxLD3Waq3vrYIY51l0JIxJvyHWWVpgmQVwaFzZOaZff1u2aY0TMkUCzU2LjU0yKLZlwY3lDxhsmRtes6cff4DhotMyx8+wdIRDG7gFNC9vADXCAxKsVTVqKoi9pO5FqFTxuvm0icV2XtxyBEzS87psr6q9kzWsfCtecDRlH7C1LV2WU1wcLywsiBS982bI1r4RtQVHn2mvLL6TaBJ1nzy2RMd1ZYe9Bk91ZDcoUp4yq61ogdq1O6nJ9qN+Ib+9CY/8ibD1CJsMIztxRj3CYKcFdLm5dob7bm0Sd6WnvGgTy+sDGLFM5F9hhY7zkn0yjLTd+ZfBiz/pnvq9qXHslkeF/SjAP5RgpRS2OBsVigpJ4FWCKkW4J/DcdqvUPQXoba88AF6FqKH0BpcX+gQ37zrJ9bajTrv5vCO+/9wlPLXcb/bUwlj/CcN8B4wuC9Y3trkXbFq4zridq0uy6WwCLmmIRCPRIBxKqMPX3AYL9uP6O8+6wjm6taqLo1a5e8N17h/wL1m2keTLOfXhJ246I7bgjLu4svhqXyhjjKTN2VoLI+vFNcQSEU3I9jhxA2S2kKREBjvdF9TRHAiN1t3YjrMoQqC6ap1r/agt1uRCELIcio+jPZFVSwmzlifhp1rriFLLQ8yh/6QDbRkiEqGaTUijc/RHVYtEek5RKWcC823bmuX2zl8WIZySx4HoQs4a8kRZKzNzzhxyEIho262DXctOCbTq/CDl4VW6U7m6BrYCghVwu4usqKui9OpJvKEj7CvmPUcuwo/kFPbjO/2h1598/FWiOGv9M4tXmi4vrKwUQfLamyttr+xkoG1gdFM7j5t3fry/pN+9DjT46Q7rxUd4r815UXWrSf/dYbodkhrc9xhWXnBXw3ONz0tvH8J0x5kM0x1HMtmPpPIPJVheCVCY2pl7D7P4d4EqS+iNNLLrBvx7DczLj6Zr+w1eZRJQ83gRS28BNRnXvYHr/vIXpdFJH4guX7Wl/7U3L5m7dJtv0Ph+mfS7aGzb1gZ/1c4WmzRpsA0aUmJFBdwMyqYfZ+mUx0h7ZyTUFUsLNtTWWKA9fENaZublb91wwlaXwPxn6DALaCgVzvjP+Es881Xht1OW+6KL/vBY9JRTFgd3tH/Xguk/ZAEpOw5XRdsOWzAjiFgFYmI6KkRRsF6FqDqEiKLlYXZ3xQzcmAhaF1O0MBRchEeTX7lpjUrHZ6yx2ppWvGprkOrPYUrYzk6iHoCIB4ebb8cmizfCKWlqCNHbuX61hRuqIWylrOpUW7gO7g8uS1yfrk+OwVFFkHIXQXIE0qMrrvb5k/AkedD0ULJZIbgrMsiPA9u8TOtLS+PZmxzuRR4SzODcYlNtzeVPP/zAj1w567EN7q9/vzJPaWvv53Wf3P/R8b1foh8kvQ8S5v3y8e9yV+f9pwCFJC6LuYgDNSQRLFZ/E+taKcTFeUj+0avcSNKSarkfeg3Sav70IkewchV20aIVfGcFhGRh9KLjyMeRt44+7aL7Lnt1Q+v8NTvbbVxJkO7GVNIX9GfykKnkgV59fTMHZ+ttyOAiNgMDUaTHWYDJDjWzo5UW8t9f1r/o8jv/e9abin/GOTdyed45kX80V6W4+4aKmMHEuGnnogpWgOzKjOO+fFc0FvyhLyP3K349LY00Cc9chck215iH/HqBweeIFQOt1p0gDCI0Ua0/SV4LYqLpFqIbMGhUlZ57D3BXMhOgtMwcvxbUW+qqrfoJ1qm3VlnXsDHu9tQYclqs9Fsr8lzhEUz5IC5ddTvZd2tSiULiKVmk2E0XABKnANrj7slK0CsIpPzBBcL7oIFg6RgQWm56YOkQKTA/S/KhUNSfkxdqQo4ro7R06Zq2zgt+cOyClxTffDiryn0gVvL7MXy0S+CfRrBSi0UUHqAVWznIwkRPWSzM9B134FOL5doBaZTd3wGbmCFxJ0JYOyq2cCEL4MCwGRXTi4cNuSA9O+uM5XVcapDhi08bzBUp3HCg3TTySR/SJcExdv+zo2nZ6f5tdZ1+5lH+cHtDV9xfd9/G+tZftT38JU1D6CnPBCvmz4+xCQhBPtdZ/Uv/KkWEyfiMc4Idj920Cf1X7bhzrg007/y21dedbmU5oU7OEbY11XCYbxucUQYcLt8JQRLRMIRN25iehcNF3JcFU8ruXFRcDX5EzKg1VtYR54Dj0pt+IiodBVqHQt6Ms4u6lDCu6Sbn+BDysPbmiTxjpjEpEZ41qrjVV+vZLigUR3u4xljrZ+Kg0jG7NCBwok66493NeXCTuzi8Lm5DJByyFulBrmH2c430Nl96+uUdV3znt7eRSgWCvRcvmB/1/YOn30T9MXxIS+BfQrD07RCDWoiSZKvUomUWJyRChdbpszCKmG3B3JFiL297AxcPMfkuuaTSrZktXbp0PbcarIOz6FdfX19QOPf22ZOGpF/Y2t55XHs96yfIGKUXFEYD2VnMZKKWGQjrChSt6vAWlY8TLmnBvP6lQY38Ha3NWwKxtjtycrNvev7649crIxUVcf/y5Yt8ixYtiFRU7i1r/xK3uOn2Bh2OXr7cxws777D/9kVS/nFkaL8LWpvrv4DwWLF25OJBkQQWoZFwh8PyM03z1bH4XT5kEGQaglS9xcKlA1iL57ZUvYQj3g0ilgnDxvVdMEn1vLxVBf2AYHEUya15pcEU56Vxn1Y63FrYyYnExa0xBeSRHp9ud4iqZDnSV4PYhKaeEi7V+b9tTS0wtWqCTCkhoJzNtP7ZWfHMrGzIJA2mpTXAnVn+WCitFg/XdpVk/NJ+fYXjvk+59142ICh/Qn8M/zkl8C8jWEkCJO5J2BcMwlI9al1fjil27kgJN0pBTjgrscJCp5xyb3TRIl+0oiKx8Dlz5szYk39b1rJla+OZv3tw1fljh+YNd2s5fnb5OuojsFT+1sZmpjm+aGZ+biyQke8PpmfxDnI6gnTMnnQ6ON75TLQzeuu26tpHqh4+V2tiHAG8V2tw0IZdi64yfyjAE53wzikuWsS1UndcNGfihEsaG+tP4tKqM8PcJw6RCWo6yESNoSMtspmrhCeOG+fP4jxhUbTDV1e7XUthbv6uA92wYFzrku24njpuWNDaVNqgMmtPT48j1MXqNV/PVC/G4n1bUyPvSPAQmAiWODK4LZ2rjBJPOslurKmzFgaLkpISK+amUtu0hdtJkcOicaBy4VY4PrCkNFRQWBTUve1v1tSvg7r9X0GO/+atD96lab4KPwhGFy3cvzvvXdiP/z7yJfAvI1jionpzTZ4ZVVNBVmptBf4k1IbSvRCPtbinRFkzQmdp10izBtlMmJA4InTshY+l126vnh4ORw/H5bhTL1sys7rVFxqT7+ftva5IuJMFEW0+cRef38/ldtwjEO/ICCDFw3YU3ESgtTWrMPul9Lzsh3jU5bHnf/OptYkUmflx8LhkeXV80X4+DOGF/5eqye18yGtg/vwJvp/85Pvq6Dc5HDl9BqTqM0z2jocUTcnOyQ6u5kjNbDgfCWoOLS2J1K1ca2llJb52nvRi9GCuZr4ijsXojve123Ywrx6GDBrVFe7yxREKjcFViWBxVgaOSpf1Ma2EyHE4EO4ZwVXWx6BaHLHMtk6OCEEg4/3797fS4uKYtXJoqDCfhqGTPlA0FvkHkI+uzs6/NTU23WSvVN5PvjvdjoZeBDphYBRiRdY/hv/UEnCd/t/98RAoTeV04nw37iuVeKEvw984cGBdXVvW2rWN1Ws2Ngx69rWNc1Zuqf8El+mNllCnHkgIaIEZqaRwhJsZWednDsSaCN21s8VC4WquRuGN48zid9lJe5EOU9nZ1PXc1pcv2tJdFkyx5tuh/koe16TDJaed3a4fGU2FpopM3lBheRLL3Mp8aPTUqbmh0BF1NfWHTxs/ZuoRh8wr21lTY79/dDEPSyAAC7Pb3NBkE0ePjH3q6KPjm6uq4n9Y/CQncEIS7KQgtSwYYwMv6Aszgcth7eu0Y4+D5gTtoSf+Gt/c2MzFDsiqSYaNpUGm2haD44pmZAbOP3yBj+Mydvfjj/OWYLPxinQnR4VejfgCjx09cfxDi3//f8uVRwcSVWCdEEIl7vtj+A8vgQ8FwdpLHSh/EIufZ5/8pQELyorSjmDRY1JefsGYzTtaBo8uH2wzpwy3xUvW2evrdzgpb/eqC2shcTpKVFvo8FbEUQejsIU9p7Vt4c5VaZ01b3I3zLLVz1es75E2nN38SyoDlaYOsruAXw+/H0kD19rMr/ax/d+bS8n76kU/mJiWFpr1+JIXpqxraB4fDIWGpgf9pWcdfpgECuymRx5B/IEdUgiNKJ8HHPW2Du6pGjKgzE488ijkPIP21HPcsrDiXV7fKjXkWzyv3ITKLQ5Isc84YGzjglmf2LBy9YqXH1305+eGzf7Ekk3P/nVDt0dIXEVFRQDsQWRT3D/W/oeWwIeGYKVyUr3rYj7CmMvCxaU1L7T0n3lM2YBpY/sVLl1fn5UR9GcsPGJ01pLl2wJbeSGYrSZmjGEE0mPNXKxQx02f1fEu386O9M7qtX+5iP33PoB1qfnVK3yV82Ep/nNGcer9FH+SePVNFMqnFhx14IzB40eOGHbf4scGbNm6Y1B2Ye6Qtmis2B+PFTPfy4JvzeUUQNHMUSPyRpUPR2atAAmEYKy5tSW8act7TZWr11UjlFCPXFcNsqwbGELWlARsdfWKt9dRE1W71Qbc1CklJUy9F4mb2kXpdvP4scV/agn8f/D0QkYrI8cXAAAAAElFTkSuQmCC;opacity=65;" vertex="1" parent="XpQHc-YMDH5aCk1nWTeP-30">
          <mxGeometry x="1087" y="739" width="232" height="81.2" as="geometry" />
        </mxCell>
        <mxCell id="XpQHc-YMDH5aCk1nWTeP-31" value="" style="group;strokeWidth=1;flipH=0;flipV=1;opacity=30;" vertex="1" connectable="0" parent="1">
          <mxGeometry x="168" y="270" width="1272" height="840" as="geometry" />
        </mxCell>
        <mxCell id="XpQHc-YMDH5aCk1nWTeP-7" value="" style="endArrow=classic;html=1;rounded=0;strokeWidth=1;strokeColor=#FFFFFF;curved=1;elbow=horizontal;endSize=15;flowAnimation=1;shadow=0;opacity=30;" edge="1" parent="XpQHc-YMDH5aCk1nWTeP-31">
          <mxGeometry width="50" height="50" relative="1" as="geometry">
            <mxPoint x="-38" y="380" as="sourcePoint" />
            <mxPoint x="705.0000000000003" y="736.1797752808989" as="targetPoint" />
            <Array as="points">
              <mxPoint x="85.00000000000084" y="830.561797752809" />
            </Array>
          </mxGeometry>
        </mxCell>
        <mxCell id="XpQHc-YMDH5aCk1nWTeP-21" value="" style="endArrow=classic;html=1;rounded=0;strokeWidth=1;strokeColor=#FFFFFF;curved=1;elbow=horizontal;endSize=23;flowAnimation=1;shadow=0;opacity=30;" edge="1" parent="XpQHc-YMDH5aCk1nWTeP-31">
          <mxGeometry width="50" height="50" relative="1" as="geometry">
            <mxPoint x="1130" y="396.40449438202245" as="sourcePoint" />
            <mxPoint x="520.0000000000005" y="47.19101123595505" as="targetPoint" />
            <Array as="points">
              <mxPoint x="1060" />
            </Array>
          </mxGeometry>
        </mxCell>
        <mxCell id="XpQHc-YMDH5aCk1nWTeP-22" value="" style="endArrow=classic;html=1;rounded=0;entryX=0.369;entryY=0.006;entryDx=0;entryDy=0;strokeWidth=1;strokeColor=#FFFFFF;curved=1;entryPerimeter=0;elbow=horizontal;endSize=16;flowAnimation=1;shadow=0;startSize=11;opacity=30;" edge="1" parent="XpQHc-YMDH5aCk1nWTeP-31" target="XpQHc-YMDH5aCk1nWTeP-46">
          <mxGeometry width="50" height="50" relative="1" as="geometry">
            <mxPoint x="570.0000000000005" y="47.19101123595505" as="sourcePoint" />
            <mxPoint y="396.4044943820227" as="targetPoint" />
            <Array as="points">
              <mxPoint x="-84.99999999999902" y="-18.876404494382022" />
            </Array>
          </mxGeometry>
        </mxCell>
        <mxCell id="XpQHc-YMDH5aCk1nWTeP-24" value="" style="endArrow=classic;html=1;rounded=0;strokeWidth=1;strokeColor=#FFFFFF;curved=1;elbow=horizontal;endSize=16;flowAnimation=1;shadow=0;opacity=30;" edge="1" parent="XpQHc-YMDH5aCk1nWTeP-31">
          <mxGeometry width="50" height="50" relative="1" as="geometry">
            <mxPoint x="481.0000000000005" y="750.3370786516854" as="sourcePoint" />
            <mxPoint x="1130" y="386.96629213483146" as="targetPoint" />
            <Array as="points">
              <mxPoint x="1029.6799999999994" y="773.9325842696629" />
            </Array>
          </mxGeometry>
        </mxCell>
        <mxCell id="XpQHc-YMDH5aCk1nWTeP-52" value="" style="ellipse;whiteSpace=wrap;html=1;aspect=fixed;strokeColor=#FFFFFF;fillColor=none;strokeWidth=3;opacity=30;" vertex="1" parent="XpQHc-YMDH5aCk1nWTeP-31">
          <mxGeometry x="15.000000000000897" y="800.9325842696629" width="75.50561797752809" height="75.50561797752809" as="geometry" />
        </mxCell>
        <mxCell id="XpQHc-YMDH5aCk1nWTeP-68" value="" style="ellipse;whiteSpace=wrap;html=1;aspect=fixed;strokeColor=#FFFFFF;fillColor=none;strokeWidth=2;opacity=30;" vertex="1" parent="XpQHc-YMDH5aCk1nWTeP-31">
          <mxGeometry x="593.9999999999997" y="736.1797752808989" width="28.314606741573034" height="28.314606741573034" as="geometry" />
        </mxCell>
        <mxCell id="XpQHc-YMDH5aCk1nWTeP-32" value="" style="group;strokeWidth=1;flipH=0;flipV=1;opacity=30;" vertex="1" connectable="0" parent="1">
          <mxGeometry x="110" y="260" width="1287" height="861.2900000000001" as="geometry" />
        </mxCell>
        <mxCell id="XpQHc-YMDH5aCk1nWTeP-33" value="" style="endArrow=classic;html=1;rounded=0;strokeWidth=1;strokeColor=#FFFFFF;curved=1;elbow=horizontal;endSize=6;flowAnimation=1;shadow=0;entryX=0;entryY=0.5;entryDx=0;entryDy=0;opacity=30;" edge="1" parent="XpQHc-YMDH5aCk1nWTeP-32" target="XpQHc-YMDH5aCk1nWTeP-68">
          <mxGeometry width="50" height="50" relative="1" as="geometry">
            <mxPoint x="140.0000000000008" y="147.5301204819277" as="sourcePoint" />
            <mxPoint x="570.0000000000005" y="751.9277108433735" as="targetPoint" />
            <Array as="points">
              <mxPoint x="-29.999999999999066" y="314.09638554216866" />
              <mxPoint x="170.00000000000077" y="751.9277108433735" />
            </Array>
          </mxGeometry>
        </mxCell>
        <mxCell id="XpQHc-YMDH5aCk1nWTeP-34" value="" style="endArrow=classic;html=1;rounded=0;strokeWidth=1;strokeColor=#FFFFFF;curved=1;elbow=horizontal;endSize=15;flowAnimation=1;shadow=0;opacity=30;" edge="1" parent="XpQHc-YMDH5aCk1nWTeP-32">
          <mxGeometry width="50" height="50" relative="1" as="geometry">
            <mxPoint x="1070" y="620" as="sourcePoint" />
            <mxPoint x="370.0000000000006" y="47.59036144578313" as="targetPoint" />
            <Array as="points">
              <mxPoint x="1270" y="440" />
              <mxPoint x="970" y="10" />
            </Array>
          </mxGeometry>
        </mxCell>
        <mxCell id="XpQHc-YMDH5aCk1nWTeP-36" value="" style="endArrow=classic;html=1;rounded=0;strokeWidth=2;strokeColor=#FFFFFF;curved=1;elbow=horizontal;endSize=22;flowAnimation=1;shadow=0;exitX=1;exitY=0.5;exitDx=0;exitDy=0;opacity=30;" edge="1" parent="XpQHc-YMDH5aCk1nWTeP-32" source="XpQHc-YMDH5aCk1nWTeP-68">
          <mxGeometry width="50" height="50" relative="1" as="geometry">
            <mxPoint x="560.0000000000005" y="751.9277108433735" as="sourcePoint" />
            <mxPoint x="1130" y="550" as="targetPoint" />
            <Array as="points">
              <mxPoint x="1000" y="760" />
            </Array>
          </mxGeometry>
        </mxCell>
        <mxCell id="XpQHc-YMDH5aCk1nWTeP-50" value="" style="ellipse;whiteSpace=wrap;html=1;aspect=fixed;strokeColor=#FFFFFF;fillColor=none;strokeWidth=3;opacity=30;" vertex="1" parent="XpQHc-YMDH5aCk1nWTeP-32">
          <mxGeometry x="680.0000000000003" y="-9.518072289156626" width="19.03614457831325" height="19.03614457831325" as="geometry" />
        </mxCell>
        <mxCell id="XpQHc-YMDH5aCk1nWTeP-60" value="" style="endArrow=classic;html=1;rounded=0;exitX=0;exitY=0.5;exitDx=0;exitDy=0;entryX=1;entryY=1;entryDx=0;entryDy=0;strokeColor=#FFFFFF;strokeWidth=5;endSize=10;opacity=30;" edge="1" parent="XpQHc-YMDH5aCk1nWTeP-32" source="XpQHc-YMDH5aCk1nWTeP-37">
          <mxGeometry width="50" height="50" relative="1" as="geometry">
            <mxPoint x="919.0000000000002" y="322.6626506024096" as="sourcePoint" />
            <mxPoint x="700.0000000000003" as="targetPoint" />
          </mxGeometry>
        </mxCell>
        <mxCell id="XpQHc-YMDH5aCk1nWTeP-69" value="" style="ellipse;whiteSpace=wrap;html=1;aspect=fixed;strokeColor=#FFFFFF;fillColor=none;strokeWidth=2;opacity=30;" vertex="1" parent="XpQHc-YMDH5aCk1nWTeP-32">
          <mxGeometry x="249.9999999999998" y="700.5301204819277" width="28.55421686746988" height="28.55421686746988" as="geometry" />
        </mxCell>
        <mxCell id="XpQHc-YMDH5aCk1nWTeP-25" value="" style="endArrow=classic;html=1;rounded=0;strokeWidth=1;strokeColor=#FFFFFF;curved=1;elbow=horizontal;endSize=20;flowAnimation=1;shadow=0;entryX=0.07;entryY=0.282;entryDx=0;entryDy=0;entryPerimeter=0;opacity=30;" edge="1" parent="XpQHc-YMDH5aCk1nWTeP-32">
          <mxGeometry width="50" height="50" relative="1" as="geometry">
            <mxPoint x="20.00000000000091" y="391.59915662650604" as="sourcePoint" />
            <mxPoint x="963.6999999999998" y="112.32999999999998" as="targetPoint" />
            <Array as="points">
              <mxPoint x="109.00000000000084" y="-139.99722891566265" />
            </Array>
          </mxGeometry>
        </mxCell>
        <mxCell id="XpQHc-YMDH5aCk1nWTeP-37" value="" style="ellipse;whiteSpace=wrap;html=1;aspect=fixed;strokeColor=#FFFFFF;fillColor=none;strokeWidth=3;opacity=30;" vertex="1" parent="1">
          <mxGeometry x="1160" y="180" width="50" height="50" as="geometry" />
        </mxCell>
        <mxCell id="XpQHc-YMDH5aCk1nWTeP-38" value="" style="ellipse;whiteSpace=wrap;html=1;aspect=fixed;strokeColor=#FFFFFF;fillColor=none;strokeWidth=3;opacity=30;" vertex="1" parent="1">
          <mxGeometry x="1072" y="339" width="110" height="110" as="geometry" />
        </mxCell>
        <mxCell id="XpQHc-YMDH5aCk1nWTeP-44" value="" style="group;opacity=30;" vertex="1" connectable="0" parent="1">
          <mxGeometry x="1397" y="680" width="90" height="80" as="geometry" />
        </mxCell>
        <mxCell id="XpQHc-YMDH5aCk1nWTeP-41" value="" style="ellipse;whiteSpace=wrap;html=1;aspect=fixed;strokeColor=#FFFFFF;fillColor=none;strokeWidth=3;opacity=30;" vertex="1" parent="XpQHc-YMDH5aCk1nWTeP-44">
          <mxGeometry width="80" height="80" as="geometry" />
        </mxCell>
        <mxCell id="XpQHc-YMDH5aCk1nWTeP-43" value="" style="ellipse;whiteSpace=wrap;html=1;aspect=fixed;strokeColor=#FFFFFF;fillColor=none;strokeWidth=2;opacity=30;" vertex="1" parent="XpQHc-YMDH5aCk1nWTeP-44">
          <mxGeometry x="10" y="9" width="61" height="61" as="geometry" />
        </mxCell>
        <mxCell id="XpQHc-YMDH5aCk1nWTeP-45" value="" style="group;opacity=30;" vertex="1" connectable="0" parent="1">
          <mxGeometry x="120" y="800" width="130" height="120" as="geometry" />
        </mxCell>
        <mxCell id="XpQHc-YMDH5aCk1nWTeP-46" value="" style="ellipse;whiteSpace=wrap;html=1;aspect=fixed;strokeColor=#FFFFFF;fillColor=none;strokeWidth=3;opacity=30;" vertex="1" parent="XpQHc-YMDH5aCk1nWTeP-45">
          <mxGeometry width="120" height="120" as="geometry" />
        </mxCell>
        <mxCell id="XpQHc-YMDH5aCk1nWTeP-47" value="" style="ellipse;whiteSpace=wrap;html=1;aspect=fixed;strokeColor=#FFFFFF;fillColor=none;strokeWidth=3;opacity=30;" vertex="1" parent="XpQHc-YMDH5aCk1nWTeP-45">
          <mxGeometry x="30" y="26.25" width="48.75" height="48.75" as="geometry" />
        </mxCell>
        <mxCell id="XpQHc-YMDH5aCk1nWTeP-74" value="" style="ellipse;whiteSpace=wrap;html=1;aspect=fixed;strokeColor=#FFFFFF;fillColor=none;strokeWidth=3;opacity=30;" vertex="1" parent="XpQHc-YMDH5aCk1nWTeP-45">
          <mxGeometry x="11.38" y="10.63" width="99.37" height="99.37" as="geometry" />
        </mxCell>
        <mxCell id="XpQHc-YMDH5aCk1nWTeP-48" value="" style="group;opacity=30;" vertex="1" connectable="0" parent="1">
          <mxGeometry x="1340" y="290" width="80" height="80" as="geometry" />
        </mxCell>
        <mxCell id="XpQHc-YMDH5aCk1nWTeP-49" value="" style="ellipse;whiteSpace=wrap;html=1;aspect=fixed;strokeColor=#FFFFFF;fillColor=none;strokeWidth=3;opacity=30;" vertex="1" parent="XpQHc-YMDH5aCk1nWTeP-48">
          <mxGeometry width="80" height="80" as="geometry" />
        </mxCell>
        <mxCell id="XpQHc-YMDH5aCk1nWTeP-51" value="" style="ellipse;whiteSpace=wrap;html=1;aspect=fixed;strokeColor=#FFFFFF;fillColor=none;strokeWidth=3;opacity=30;" vertex="1" parent="1">
          <mxGeometry x="-100" y="930" width="80" height="80" as="geometry" />
        </mxCell>
        <mxCell id="XpQHc-YMDH5aCk1nWTeP-53" value="" style="ellipse;whiteSpace=wrap;html=1;aspect=fixed;strokeColor=#FFFFFF;fillColor=none;strokeWidth=3;opacity=30;" vertex="1" parent="1">
          <mxGeometry x="20" y="180" width="40" height="40" as="geometry" />
        </mxCell>
        <mxCell id="XpQHc-YMDH5aCk1nWTeP-54" value="" style="endArrow=classic;html=1;rounded=0;exitX=0.5;exitY=1;exitDx=0;exitDy=0;entryX=0.5;entryY=0;entryDx=0;entryDy=0;strokeColor=#FFFFFF;strokeWidth=5;endSize=10;opacity=30;" edge="1" parent="1" source="XpQHc-YMDH5aCk1nWTeP-37" target="XpQHc-YMDH5aCk1nWTeP-38">
          <mxGeometry width="50" height="50" relative="1" as="geometry">
            <mxPoint x="640" y="610" as="sourcePoint" />
            <mxPoint x="690" y="560" as="targetPoint" />
          </mxGeometry>
        </mxCell>
        <mxCell id="XpQHc-YMDH5aCk1nWTeP-56" value="" style="endArrow=classic;html=1;rounded=0;exitX=1;exitY=0.5;exitDx=0;exitDy=0;entryX=0;entryY=0;entryDx=0;entryDy=0;strokeColor=#FFFFFF;strokeWidth=5;endSize=10;opacity=30;" edge="1" parent="1" source="XpQHc-YMDH5aCk1nWTeP-37" target="XpQHc-YMDH5aCk1nWTeP-49">
          <mxGeometry width="50" height="50" relative="1" as="geometry">
            <mxPoint x="1410" y="580" as="sourcePoint" />
            <mxPoint x="1370" y="320" as="targetPoint" />
          </mxGeometry>
        </mxCell>
        <mxCell id="XpQHc-YMDH5aCk1nWTeP-55" value="" style="endArrow=classic;html=1;rounded=0;exitX=0.5;exitY=1;exitDx=0;exitDy=0;entryX=0.5;entryY=0;entryDx=0;entryDy=0;strokeColor=#FFFFFF;strokeWidth=5;endSize=10;opacity=30;" edge="1" parent="1" source="XpQHc-YMDH5aCk1nWTeP-49" target="XpQHc-YMDH5aCk1nWTeP-41">
          <mxGeometry width="50" height="50" relative="1" as="geometry">
            <mxPoint x="1161" y="383" as="sourcePoint" />
            <mxPoint x="1342" y="308" as="targetPoint" />
          </mxGeometry>
        </mxCell>
        <mxCell id="XpQHc-YMDH5aCk1nWTeP-62" value="" style="endArrow=classic;html=1;rounded=0;exitX=1;exitY=1;exitDx=0;exitDy=0;entryX=0;entryY=0;entryDx=0;entryDy=0;strokeColor=#FFFFFF;strokeWidth=5;endSize=10;opacity=30;" edge="1" parent="1" source="XpQHc-YMDH5aCk1nWTeP-53" target="XpQHc-YMDH5aCk1nWTeP-3">
          <mxGeometry width="50" height="50" relative="1" as="geometry">
            <mxPoint x="1402" y="612" as="sourcePoint" />
            <mxPoint x="1183" y="273" as="targetPoint" />
          </mxGeometry>
        </mxCell>
        <mxCell id="XpQHc-YMDH5aCk1nWTeP-63" value="" style="endArrow=classic;html=1;rounded=0;entryX=1;entryY=0;entryDx=0;entryDy=0;strokeColor=#FFFFFF;strokeWidth=5;endSize=10;opacity=30;exitX=1;exitY=0;exitDx=0;exitDy=0;" edge="1" parent="1" source="XpQHc-YMDH5aCk1nWTeP-1" target="XpQHc-YMDH5aCk1nWTeP-49">
          <mxGeometry width="50" height="50" relative="1" as="geometry">
            <mxPoint x="1412" y="622" as="sourcePoint" />
            <mxPoint x="1193" y="283" as="targetPoint" />
          </mxGeometry>
        </mxCell>
        <mxCell id="XpQHc-YMDH5aCk1nWTeP-64" value="" style="endArrow=classic;html=1;rounded=0;entryX=0.03;entryY=0.721;entryDx=0;entryDy=0;strokeColor=#FFFFFF;strokeWidth=5;exitX=1;exitY=0.5;exitDx=0;exitDy=0;endSize=10;opacity=30;entryPerimeter=0;" edge="1" parent="1" source="XpQHc-YMDH5aCk1nWTeP-51" target="XpQHc-YMDH5aCk1nWTeP-46">
          <mxGeometry width="50" height="50" relative="1" as="geometry">
            <mxPoint x="250" y="430" as="sourcePoint" />
            <mxPoint x="213" y="369" as="targetPoint" />
          </mxGeometry>
        </mxCell>
        <mxCell id="XpQHc-YMDH5aCk1nWTeP-65" value="" style="endArrow=classic;html=1;rounded=0;entryX=0.5;entryY=0;entryDx=0;entryDy=0;strokeColor=#FFFFFF;strokeWidth=5;exitX=0.5;exitY=1;exitDx=0;exitDy=0;endSize=10;opacity=30;" edge="1" parent="1" source="XpQHc-YMDH5aCk1nWTeP-46" target="XpQHc-YMDH5aCk1nWTeP-52">
          <mxGeometry width="50" height="50" relative="1" as="geometry">
            <mxPoint x="-32" y="962" as="sourcePoint" />
            <mxPoint x="138" y="891" as="targetPoint" />
          </mxGeometry>
        </mxCell>
        <mxCell id="XpQHc-YMDH5aCk1nWTeP-66" value="" style="endArrow=classic;html=1;rounded=0;entryX=0;entryY=1;entryDx=0;entryDy=0;strokeColor=#FFFFFF;strokeWidth=5;exitX=0.5;exitY=0;exitDx=0;exitDy=0;endSize=10;opacity=30;" edge="1" parent="1" source="XpQHc-YMDH5aCk1nWTeP-51" target="XpQHc-YMDH5aCk1nWTeP-53">
          <mxGeometry width="50" height="50" relative="1" as="geometry">
            <mxPoint x="-22" y="972" as="sourcePoint" />
            <mxPoint x="148" y="901" as="targetPoint" />
          </mxGeometry>
        </mxCell>
        <mxCell id="XpQHc-YMDH5aCk1nWTeP-73" value="" style="endArrow=classic;html=1;rounded=0;exitX=1;exitY=0;exitDx=0;exitDy=0;entryX=0.25;entryY=0;entryDx=0;entryDy=0;strokeColor=#FFFFFF;strokeWidth=5;endSize=10;opacity=30;" edge="1" parent="1" source="XpQHc-YMDH5aCk1nWTeP-3" target="XpQHc-YMDH5aCk1nWTeP-1">
          <mxGeometry width="50" height="50" relative="1" as="geometry">
            <mxPoint x="14" y="214" as="sourcePoint" />
            <mxPoint x="213" y="369" as="targetPoint" />
          </mxGeometry>
        </mxCell>
        <mxCell id="XpQHc-YMDH5aCk1nWTeP-35" value="" style="endArrow=classic;html=1;rounded=0;strokeWidth=1;strokeColor=#FFFFFF;curved=1;elbow=horizontal;endSize=20;flowAnimation=1;shadow=0;entryX=0;entryY=0.5;entryDx=0;entryDy=0;opacity=30;exitX=0;exitY=0;exitDx=0;exitDy=0;" edge="1" parent="1" source="XpQHc-YMDH5aCk1nWTeP-38" target="XpQHc-YMDH5aCk1nWTeP-69">
          <mxGeometry width="50" height="50" relative="1" as="geometry">
            <mxPoint x="900.0000000000003" y="326.6265060240964" as="sourcePoint" />
            <mxPoint x="320.00000000000074" y="954.8192771084337" as="targetPoint" />
            <Array as="points">
              <mxPoint x="990" y="330" />
              <mxPoint x="900" y="310" />
              <mxPoint x="730" y="310" />
              <mxPoint x="410" y="300" />
              <mxPoint x="190.00000000000085" y="431.3253012048193" />
              <mxPoint x="120.00000000000091" y="678.7951807228915" />
              <mxPoint x="180.00000000000085" y="850.1204819277108" />
            </Array>
          </mxGeometry>
        </mxCell>
      </root>
    </mxGraphModel>
  </diagram>
</mxfile>
